{
  "title" : "",
  "description" : "",
  "author" : "",
  "targetLoudness" : -18.0,
  "shouldApplyLoudnessNormalization" : true,
  "videoFormatFrameRate" : 60,
  "audioFormatSampleRate" : 44100,
  "width" : 1920.0,
  "height" : 1080.0,
  "version" : "5.0",
  "editRate" : 60,
  "authoringClientName" :  {
    "name" : "Camtasia",
    "platform" : "Windows",
    "version" : "21.0"
  },
  "sourceBin" : [
    {
      "id" : 1,
      "src" : "arHandTrackingCat (online-video-cutter.com).mp4",
      "rect" : [0, 0, 324, 720],
      "lastMod" : "20211202T150535",
      "loudnessNormalization" : true,
      "sourceTracks" : [
        {
          "range" : [0, 10390],
          "type" : 2,
          "editRate" : 1000,
          "trackRect" : [0, 0, 0, 0],
          "sampleRate" : 48000,
          "bitDepth" : 16,
          "numChannels" : 2,
          "integratedLUFS" : -1.79769313486232e+308,
          "peakLevel" : 0.0,
          "metaData" : ""
        },
        {
          "range" : [0, 10376],
          "type" : 0,
          "editRate" : 1000,
          "trackRect" : [0, 0, 324, 720],
          "sampleRate" : "12747/250",
          "bitDepth" : 24,
          "numChannels" : 0,
          "integratedLUFS" : 100.0,
          "peakLevel" : -1.0,
          "metaData" : ""
        }
      ],
      "metadata" : {
        "timeAdded" : "20211202T152814.359653"
      }
    },
    {
      "id" : 2,
      "src" : "arHandTracking (online-video-cutter.com).mp4",
      "rect" : [0, 0, 324, 720],
      "lastMod" : "20211202T150126",
      "loudnessNormalization" : true,
      "sourceTracks" : [
        {
          "range" : [0, 9062],
          "type" : 2,
          "editRate" : 1000,
          "trackRect" : [0, 0, 0, 0],
          "sampleRate" : 48000,
          "bitDepth" : 16,
          "numChannels" : 2,
          "integratedLUFS" : -1.79769313486232e+308,
          "peakLevel" : 0.0,
          "metaData" : ""
        },
        {
          "range" : [0, 9131],
          "type" : 0,
          "editRate" : 1000,
          "trackRect" : [0, 0, 324, 720],
          "sampleRate" : "20701/500",
          "bitDepth" : 24,
          "numChannels" : 0,
          "integratedLUFS" : 100.0,
          "peakLevel" : -1.0,
          "metaData" : ""
        }
      ],
      "metadata" : {
        "timeAdded" : "20211202T152814.366634"
      }
    },
    {
      "id" : 3,
      "src" : "arHandAddBoxCollider (online-video-cutter.com).mp4",
      "rect" : [0, 0, 1920, 752],
      "lastMod" : "20211202T145928",
      "loudnessNormalization" : true,
      "sourceTracks" : [
        {
          "range" : [0, 7348],
          "type" : 2,
          "editRate" : 1000,
          "trackRect" : [0, 0, 0, 0],
          "sampleRate" : 48000,
          "bitDepth" : 16,
          "numChannels" : 2,
          "integratedLUFS" : -1.79769313486232e+308,
          "peakLevel" : 1.23214840641594e-06,
          "metaData" : ""
        },
        {
          "range" : [0, 7408],
          "type" : 0,
          "editRate" : 1000,
          "trackRect" : [0, 0, 1920, 752],
          "sampleRate" : "59943/2000",
          "bitDepth" : 24,
          "numChannels" : 0,
          "integratedLUFS" : 100.0,
          "peakLevel" : -1.0,
          "metaData" : ""
        }
      ],
      "metadata" : {
        "timeAdded" : "20211202T152814.374613"
      }
    },
    {
      "id" : 4,
      "src" : "arHandInRL (online-video-cutter.com).mp4",
      "rect" : [0, 0, 324, 720],
      "lastMod" : "20211202T145709",
      "loudnessNormalization" : true,
      "sourceTracks" : [
        {
          "range" : [0, 3730],
          "type" : 2,
          "editRate" : 1000,
          "trackRect" : [0, 0, 0, 0],
          "sampleRate" : 48000,
          "bitDepth" : 16,
          "numChannels" : 2,
          "integratedLUFS" : -1.79769313486232e+308,
          "peakLevel" : 0.0,
          "metaData" : ""
        },
        {
          "range" : [0, 3768],
          "type" : 0,
          "editRate" : 1000,
          "trackRect" : [0, 0, 324, 720],
          "sampleRate" : "453943/10000",
          "bitDepth" : 24,
          "numChannels" : 0,
          "integratedLUFS" : 100.0,
          "peakLevel" : -1.0,
          "metaData" : ""
        }
      ],
      "metadata" : {
        "timeAdded" : "20211202T152814.379600"
      }
    },
    {
      "id" : 5,
      "src" : "arShakeCounter (online-video-cutter.com).mp4",
      "rect" : [0, 0, 324, 720],
      "lastMod" : "20211202T145600",
      "loudnessNormalization" : true,
      "sourceTracks" : [
        {
          "range" : [0, 5000],
          "type" : 2,
          "editRate" : 1000,
          "trackRect" : [0, 0, 0, 0],
          "sampleRate" : 48000,
          "bitDepth" : 16,
          "numChannels" : 2,
          "integratedLUFS" : -1.79769313486232e+308,
          "peakLevel" : 0.0,
          "metaData" : ""
        },
        {
          "range" : [0, 5000],
          "type" : 0,
          "editRate" : 1000,
          "trackRect" : [0, 0, 324, 720],
          "sampleRate" : 30,
          "bitDepth" : 24,
          "numChannels" : 0,
          "integratedLUFS" : 100.0,
          "peakLevel" : -1.0,
          "metaData" : ""
        }
      ],
      "metadata" : {
        "timeAdded" : "20211202T152814.386581"
      }
    },
    {
      "id" : 6,
      "src" : "arHandMoving (online-video-cutter.com).mp4",
      "rect" : [0, 0, 324, 720],
      "lastMod" : "20211202T145314",
      "loudnessNormalization" : true,
      "sourceTracks" : [
        {
          "range" : [0, 6920],
          "type" : 2,
          "editRate" : 1000,
          "trackRect" : [0, 0, 0, 0],
          "sampleRate" : 48000,
          "bitDepth" : 16,
          "numChannels" : 2,
          "integratedLUFS" : -1.79769313486232e+308,
          "peakLevel" : 0.0,
          "metaData" : ""
        },
        {
          "range" : [0, 6903],
          "type" : 0,
          "editRate" : 1000,
          "trackRect" : [0, 0, 324, 720],
          "sampleRate" : "346277/10000",
          "bitDepth" : 24,
          "numChannels" : 0,
          "integratedLUFS" : 100.0,
          "peakLevel" : -1.0,
          "metaData" : ""
        }
      ],
      "metadata" : {
        "timeAdded" : "20211202T152814.394560"
      }
    },
    {
      "id" : 7,
      "src" : "arHandCollisionDetection (online-video-cutter.com).mp4",
      "rect" : [0, 0, 324, 720],
      "lastMod" : "20211202T145157",
      "loudnessNormalization" : true,
      "sourceTracks" : [
        {
          "range" : [0, 9320],
          "type" : 2,
          "editRate" : 1000,
          "trackRect" : [0, 0, 0, 0],
          "sampleRate" : 48000,
          "bitDepth" : 16,
          "numChannels" : 2,
          "integratedLUFS" : -1.79769313486232e+308,
          "peakLevel" : 0.0,
          "metaData" : ""
        },
        {
          "range" : [0, 9348],
          "type" : 0,
          "editRate" : 1000,
          "trackRect" : [0, 0, 324, 720],
          "sampleRate" : "380871/10000",
          "bitDepth" : 24,
          "numChannels" : 0,
          "integratedLUFS" : 100.0,
          "peakLevel" : -1.0,
          "metaData" : ""
        }
      ],
      "metadata" : {
        "timeAdded" : "20211202T152814.401541"
      }
    },
    {
      "id" : 8,
      "src" : "arHandTrackingInRL (online-video-cutter.com).mp4",
      "rect" : [0, 0, 324, 720],
      "lastMod" : "20211202T145017",
      "loudnessNormalization" : true,
      "sourceTracks" : [
        {
          "range" : [0, 7500],
          "type" : 2,
          "editRate" : 1000,
          "trackRect" : [0, 0, 0, 0],
          "sampleRate" : 48000,
          "bitDepth" : 16,
          "numChannels" : 2,
          "integratedLUFS" : -1.79769313486232e+308,
          "peakLevel" : 0.0,
          "metaData" : ""
        },
        {
          "range" : [0, 7522],
          "type" : 0,
          "editRate" : 1000,
          "trackRect" : [0, 0, 324, 720],
          "sampleRate" : "465363/10000",
          "bitDepth" : 24,
          "numChannels" : 0,
          "integratedLUFS" : 100.0,
          "peakLevel" : -1.0,
          "metaData" : ""
        }
      ],
      "metadata" : {
        "timeAdded" : "20211202T152814.407525"
      }
    },
    {
      "id" : 9,
      "src" : "arHandTrackingOnScreen (online-video-cutter.com).mp4",
      "rect" : [0, 0, 324, 720],
      "lastMod" : "20211202T144850",
      "loudnessNormalization" : true,
      "sourceTracks" : [
        {
          "range" : [0, 8000],
          "type" : 2,
          "editRate" : 1000,
          "trackRect" : [0, 0, 0, 0],
          "sampleRate" : 48000,
          "bitDepth" : 16,
          "numChannels" : 2,
          "integratedLUFS" : -1.79769313486232e+308,
          "peakLevel" : 0.0,
          "metaData" : ""
        },
        {
          "range" : [0, 8008],
          "type" : 0,
          "editRate" : 1000,
          "trackRect" : [0, 0, 324, 720],
          "sampleRate" : "599401/10000",
          "bitDepth" : 24,
          "numChannels" : 0,
          "integratedLUFS" : 100.0,
          "peakLevel" : -1.0,
          "metaData" : ""
        }
      ],
      "metadata" : {
        "timeAdded" : "20211202T152814.415596"
      }
    },
    {
      "id" : 10,
      "src" : "arCube (online-video-cutter.com).mp4",
      "rect" : [0, 0, 324, 720],
      "lastMod" : "20211202T144646",
      "loudnessNormalization" : true,
      "sourceTracks" : [
        {
          "range" : [0, 7490],
          "type" : 2,
          "editRate" : 1000,
          "trackRect" : [0, 0, 0, 0],
          "sampleRate" : 48000,
          "bitDepth" : 16,
          "numChannels" : 2,
          "integratedLUFS" : -1.79769313486232e+308,
          "peakLevel" : 0.0,
          "metaData" : ""
        },
        {
          "range" : [0, 7538],
          "type" : 0,
          "editRate" : 1000,
          "trackRect" : [0, 0, 324, 720],
          "sampleRate" : "108133/2500",
          "bitDepth" : 24,
          "numChannels" : 0,
          "integratedLUFS" : 100.0,
          "peakLevel" : -1.0,
          "metaData" : ""
        }
      ],
      "metadata" : {
        "timeAdded" : "20211202T152814.421550"
      }
    },
    {
      "id" : 11,
      "src" : "arCube.mp4",
      "rect" : [0, 0, 324, 720],
      "lastMod" : "20211202T143033",
      "loudnessNormalization" : true,
      "sourceTracks" : [
        {
          "range" : [0, 107946],
          "type" : 2,
          "editRate" : 10000,
          "trackRect" : [0, 0, 0, 0],
          "sampleRate" : 48000,
          "bitDepth" : 16,
          "numChannels" : 2,
          "integratedLUFS" : -1.79769313486232e+308,
          "peakLevel" : 0.0,
          "metaData" : ""
        },
        {
          "range" : [0, 967600],
          "type" : 0,
          "editRate" : 90000,
          "trackRect" : [0, 0, 324, 720],
          "sampleRate" : "432517/10000",
          "bitDepth" : 24,
          "numChannels" : 0,
          "integratedLUFS" : 100.0,
          "peakLevel" : -1.0,
          "metaData" : ""
        }
      ],
      "metadata" : {
        "timeAdded" : "20211202T152814.426566"
      }
    },
    {
      "id" : 12,
      "src" : "Mary Psych Handshake (online-video-cutter.com).mp4",
      "rect" : [0, 0, 1280, 720],
      "lastMod" : "20211202T154858",
      "loudnessNormalization" : true,
      "sourceTracks" : [
        {
          "range" : [0, 10060],
          "type" : 2,
          "editRate" : 1000,
          "trackRect" : [0, 0, 0, 0],
          "sampleRate" : 44100,
          "bitDepth" : 16,
          "numChannels" : 2,
          "integratedLUFS" : -46.5013678688964,
          "peakLevel" : 0.0519249960780144,
          "metaData" : ""
        },
        {
          "range" : [0, 10067],
          "type" : 0,
          "editRate" : 1000,
          "trackRect" : [0, 0, 1280, 720],
          "sampleRate" : "300021/10000",
          "bitDepth" : 24,
          "numChannels" : 0,
          "integratedLUFS" : 100.0,
          "peakLevel" : -1.0,
          "metaData" : ""
        }
      ],
      "metadata" : {
        "timeAdded" : "20211202T154902.026555"
      }
    },
    {
      "id" : 13,
      "src" : "Resident Alien _ Intro Theme Song _ Opening Credits.mp4",
      "rect" : [0, 0, 1280, 720],
      "lastMod" : "20211202T142449",
      "loudnessNormalization" : true,
      "sourceTracks" : [
        {
          "range" : [0, 28200],
          "type" : 0,
          "editRate" : 1000,
          "trackRect" : [0, 0, 1280, 720],
          "sampleRate" : 30,
          "bitDepth" : 24,
          "numChannels" : 0,
          "integratedLUFS" : 100.0,
          "peakLevel" : -1.0,
          "metaData" : ""
        },
        {
          "range" : [0, 1244160],
          "type" : 2,
          "editRate" : 44100,
          "trackRect" : [0, 0, 0, 0],
          "sampleRate" : 44100,
          "bitDepth" : 16,
          "numChannels" : 2,
          "integratedLUFS" : -19.9805907614343,
          "peakLevel" : 0.543445408344269,
          "metaData" : ""
        }
      ],
      "metadata" : {
        "timeAdded" : "20211202T154945.581853"
      }
    },
    {
      "id" : 14,
      "src" : "arHandShakeFish (online-video-cutter.com).mp4",
      "rect" : [0, 0, 324, 720],
      "lastMod" : "20211202T160754",
      "loudnessNormalization" : true,
      "sourceTracks" : [
        {
          "range" : [0, 4940],
          "type" : 2,
          "editRate" : 1000,
          "trackRect" : [0, 0, 0, 0],
          "sampleRate" : 48000,
          "bitDepth" : 16,
          "numChannels" : 2,
          "integratedLUFS" : -1.79769313486232e+308,
          "peakLevel" : 0.0,
          "metaData" : ""
        },
        {
          "range" : [0, 4950],
          "type" : 0,
          "editRate" : 1000,
          "trackRect" : [0, 0, 324, 720],
          "sampleRate" : 60,
          "bitDepth" : 24,
          "numChannels" : 0,
          "integratedLUFS" : 100.0,
          "peakLevel" : -1.0,
          "metaData" : ""
        }
      ],
      "metadata" : {
        "timeAdded" : "20211202T161334.434892"
      }
    },
    {
      "id" : 15,
      "src" : "arHandShakeWithTongs.mp4",
      "rect" : [0, 0, 324, 720],
      "lastMod" : "20211202T160843",
      "loudnessNormalization" : true,
      "sourceTracks" : [
        {
          "range" : [0, 3430],
          "type" : 2,
          "editRate" : 1000,
          "trackRect" : [0, 0, 0, 0],
          "sampleRate" : 48000,
          "bitDepth" : 16,
          "numChannels" : 2,
          "integratedLUFS" : -1.79769313486232e+308,
          "peakLevel" : 0.0,
          "metaData" : ""
        },
        {
          "range" : [0, 3437],
          "type" : 0,
          "editRate" : 1000,
          "trackRect" : [0, 0, 324, 720],
          "sampleRate" : "599533/10000",
          "bitDepth" : 24,
          "numChannels" : 0,
          "integratedLUFS" : 100.0,
          "peakLevel" : -1.0,
          "metaData" : ""
        }
      ],
      "metadata" : {
        "timeAdded" : "20211202T161350.217405"
      }
    },
    {
      "id" : 16,
      "src" : "arHandShakeNormal (online-video-cutter.com).mp4",
      "rect" : [0, 0, 324, 720],
      "lastMod" : "20211202T160316",
      "loudnessNormalization" : true,
      "sourceTracks" : [
        {
          "range" : [0, 5680],
          "type" : 2,
          "editRate" : 1000,
          "trackRect" : [0, 0, 0, 0],
          "sampleRate" : 48000,
          "bitDepth" : 16,
          "numChannels" : 2,
          "integratedLUFS" : -1.79769313486232e+308,
          "peakLevel" : 0.0,
          "metaData" : ""
        },
        {
          "range" : [0, 5737],
          "type" : 0,
          "editRate" : 1000,
          "trackRect" : [0, 0, 324, 720],
          "sampleRate" : "2371/50",
          "bitDepth" : 24,
          "numChannels" : 0,
          "integratedLUFS" : 100.0,
          "peakLevel" : -1.0,
          "metaData" : ""
        }
      ],
      "metadata" : {
        "timeAdded" : "20211202T161437.006879"
      }
    },
    {
      "id" : 17,
      "src" : "Narration_Hackathon-AR-Dec-2021 1.m4a",
      "rect" : [0, 0, 0, 0],
      "lastMod" : "20211202T163502",
      "loudnessNormalization" : true,
      "sourceTracks" : [
        {
          "range" : [0, 77786848],
          "type" : 2,
          "editRate" : 10000000,
          "trackRect" : [0, 0, 0, 0],
          "sampleRate" : 44100,
          "bitDepth" : 16,
          "numChannels" : 2,
          "integratedLUFS" : -13.8600297867286,
          "peakLevel" : 1.00450909137726,
          "metaData" : ""
        }
      ],
      "metadata" : {
        "timeAdded" : "20211202T163507.938787"
      }
    },
    {
      "id" : 18,
      "src" : "Narration_Hackathon-AR-Dec-2021 2.m4a",
      "rect" : [0, 0, 0, 0],
      "lastMod" : "20211202T163554",
      "loudnessNormalization" : true,
      "sourceTracks" : [
        {
          "range" : [0, 62926076],
          "type" : 2,
          "editRate" : 10000000,
          "trackRect" : [0, 0, 0, 0],
          "sampleRate" : 44100,
          "bitDepth" : 16,
          "numChannels" : 2,
          "integratedLUFS" : -16.5159536878514,
          "peakLevel" : 0.842198967933655,
          "metaData" : ""
        }
      ],
      "metadata" : {
        "timeAdded" : "20211202T163556.952864"
      }
    },
    {
      "id" : 19,
      "src" : "Narration_Hackathon-AR-Dec-2021 3.m4a",
      "rect" : [0, 0, 0, 0],
      "lastMod" : "20211202T163658",
      "loudnessNormalization" : true,
      "sourceTracks" : [
        {
          "range" : [0, 60604080],
          "type" : 2,
          "editRate" : 10000000,
          "trackRect" : [0, 0, 0, 0],
          "sampleRate" : 44100,
          "bitDepth" : 16,
          "numChannels" : 2,
          "integratedLUFS" : -14.9324423918604,
          "peakLevel" : 0.85300612449646,
          "metaData" : ""
        }
      ],
      "metadata" : {
        "timeAdded" : "20211202T163700.599803"
      }
    },
    {
      "id" : 20,
      "src" : "Narration_Hackathon-AR-Dec-2021 4.m4a",
      "rect" : [0, 0, 0, 0],
      "lastMod" : "20211202T163752",
      "loudnessNormalization" : true,
      "sourceTracks" : [
        {
          "range" : [0, 32740112],
          "type" : 2,
          "editRate" : 10000000,
          "trackRect" : [0, 0, 0, 0],
          "sampleRate" : 44100,
          "bitDepth" : 16,
          "numChannels" : 2,
          "integratedLUFS" : -16.0520770628523,
          "peakLevel" : 0.792912542819977,
          "metaData" : ""
        }
      ],
      "metadata" : {
        "timeAdded" : "20211202T163754.557932"
      }
    },
    {
      "id" : 21,
      "src" : "Narration_Hackathon-AR-Dec-2021 5.m4a",
      "rect" : [0, 0, 0, 0],
      "lastMod" : "20211202T163829",
      "loudnessNormalization" : true,
      "sourceTracks" : [
        {
          "range" : [0, 80341000],
          "type" : 2,
          "editRate" : 10000000,
          "trackRect" : [0, 0, 0, 0],
          "sampleRate" : 44100,
          "bitDepth" : 16,
          "numChannels" : 2,
          "integratedLUFS" : -14.7523835283583,
          "peakLevel" : 1.00676715373993,
          "metaData" : ""
        }
      ],
      "metadata" : {
        "timeAdded" : "20211202T163831.628553"
      }
    },
    {
      "id" : 22,
      "src" : "Narration_Hackathon-AR-Dec-2021 6.m4a",
      "rect" : [0, 0, 0, 0],
      "lastMod" : "20211202T163922",
      "loudnessNormalization" : true,
      "sourceTracks" : [
        {
          "range" : [0, 67337872],
          "type" : 2,
          "editRate" : 10000000,
          "trackRect" : [0, 0, 0, 0],
          "sampleRate" : 44100,
          "bitDepth" : 16,
          "numChannels" : 2,
          "integratedLUFS" : -15.2202658256921,
          "peakLevel" : 1.00133085250854,
          "metaData" : ""
        }
      ],
      "metadata" : {
        "timeAdded" : "20211202T163923.946651"
      }
    },
    {
      "id" : 23,
      "src" : "Narration_Hackathon-AR-Dec-2021 7.m4a",
      "rect" : [0, 0, 0, 0],
      "lastMod" : "20211202T163956",
      "loudnessNormalization" : true,
      "sourceTracks" : [
        {
          "range" : [0, 65248072],
          "type" : 2,
          "editRate" : 10000000,
          "trackRect" : [0, 0, 0, 0],
          "sampleRate" : 44100,
          "bitDepth" : 16,
          "numChannels" : 2,
          "integratedLUFS" : -13.4768469211364,
          "peakLevel" : 1.00292336940765,
          "metaData" : ""
        }
      ],
      "metadata" : {
        "timeAdded" : "20211202T163958.032406"
      }
    },
    {
      "id" : 24,
      "src" : "Narration_Hackathon-AR-Dec-2021 8.m4a",
      "rect" : [0, 0, 0, 0],
      "lastMod" : "20211202T164041",
      "loudnessNormalization" : true,
      "sourceTracks" : [
        {
          "range" : [0, 87771432],
          "type" : 2,
          "editRate" : 10000000,
          "trackRect" : [0, 0, 0, 0],
          "sampleRate" : 44100,
          "bitDepth" : 16,
          "numChannels" : 2,
          "integratedLUFS" : -12.9146526323951,
          "peakLevel" : 1.0023432970047,
          "metaData" : ""
        }
      ],
      "metadata" : {
        "timeAdded" : "20211202T164043.259549"
      }
    },
    {
      "id" : 25,
      "src" : "Narration_Hackathon-AR-Dec-2021 9.m4a",
      "rect" : [0, 0, 0, 0],
      "lastMod" : "20211202T164140",
      "loudnessNormalization" : true,
      "sourceTracks" : [
        {
          "range" : [0, 92879776],
          "type" : 2,
          "editRate" : 10000000,
          "trackRect" : [0, 0, 0, 0],
          "sampleRate" : 44100,
          "bitDepth" : 16,
          "numChannels" : 2,
          "integratedLUFS" : -14.7516659162975,
          "peakLevel" : 1.00091171264648,
          "metaData" : ""
        }
      ],
      "metadata" : {
        "timeAdded" : "20211202T164142.334284"
      }
    },
    {
      "id" : 26,
      "src" : "Narration_Hackathon-AR-Dec-2021 10.m4a",
      "rect" : [0, 0, 0, 0],
      "lastMod" : "20211202T164218",
      "loudnessNormalization" : true,
      "sourceTracks" : [
        {
          "range" : [0, 92647616],
          "type" : 2,
          "editRate" : 10000000,
          "trackRect" : [0, 0, 0, 0],
          "sampleRate" : 44100,
          "bitDepth" : 16,
          "numChannels" : 2,
          "integratedLUFS" : -12.1063619766755,
          "peakLevel" : 1.00499427318573,
          "metaData" : ""
        }
      ],
      "metadata" : {
        "timeAdded" : "20211202T164220.479755"
      }
    },
    {
      "id" : 27,
      "src" : "Narration_Hackathon-AR-Dec-2021 11.m4a",
      "rect" : [0, 0, 0, 0],
      "lastMod" : "20211202T164255",
      "loudnessNormalization" : true,
      "sourceTracks" : [
        {
          "range" : [0, 82895224],
          "type" : 2,
          "editRate" : 10000000,
          "trackRect" : [0, 0, 0, 0],
          "sampleRate" : 44100,
          "bitDepth" : 16,
          "numChannels" : 2,
          "integratedLUFS" : -12.2331400270193,
          "peakLevel" : 1.01376140117645,
          "metaData" : ""
        }
      ],
      "metadata" : {
        "timeAdded" : "20211202T164257.013558"
      }
    },
    {
      "id" : 28,
      "src" : "Narration_Hackathon-AR-Dec-2021 12.m4a",
      "rect" : [0, 0, 0, 0],
      "lastMod" : "20211202T164334",
      "loudnessNormalization" : true,
      "sourceTracks" : [
        {
          "range" : [0, 77786848],
          "type" : 2,
          "editRate" : 10000000,
          "trackRect" : [0, 0, 0, 0],
          "sampleRate" : 44100,
          "bitDepth" : 16,
          "numChannels" : 2,
          "integratedLUFS" : -15.8290009141322,
          "peakLevel" : 1.0055365562439,
          "metaData" : ""
        }
      ],
      "metadata" : {
        "timeAdded" : "20211202T164336.627666"
      }
    },
    {
      "id" : 29,
      "src" : "Narration_Hackathon-AR-Dec-2021 13.m4a",
      "rect" : [0, 0, 0, 0],
      "lastMod" : "20211202T164404",
      "loudnessNormalization" : true,
      "sourceTracks" : [
        {
          "range" : [0, 77322448],
          "type" : 2,
          "editRate" : 10000000,
          "trackRect" : [0, 0, 0, 0],
          "sampleRate" : 44100,
          "bitDepth" : 16,
          "numChannels" : 2,
          "integratedLUFS" : -15.9719442407212,
          "peakLevel" : 0.994401693344116,
          "metaData" : ""
        }
      ],
      "metadata" : {
        "timeAdded" : "20211202T164405.919086"
      }
    },
    {
      "id" : 30,
      "src" : "Narration_Hackathon-AR-Dec-2021 14.m4a",
      "rect" : [0, 0, 0, 0],
      "lastMod" : "20211202T164439",
      "loudnessNormalization" : true,
      "sourceTracks" : [
        {
          "range" : [0, 87771432],
          "type" : 2,
          "editRate" : 10000000,
          "trackRect" : [0, 0, 0, 0],
          "sampleRate" : 44100,
          "bitDepth" : 16,
          "numChannels" : 2,
          "integratedLUFS" : -17.5141634007742,
          "peakLevel" : 0.736490249633789,
          "metaData" : ""
        }
      ],
      "metadata" : {
        "timeAdded" : "20211202T164440.997813"
      }
    },
    {
      "id" : 31,
      "src" : "Narration_Hackathon-AR-Dec-2021 15.m4a",
      "rect" : [0, 0, 0, 0],
      "lastMod" : "20211202T164609",
      "loudnessNormalization" : true,
      "sourceTracks" : [
        {
          "range" : [0, 67570072],
          "type" : 2,
          "editRate" : 10000000,
          "trackRect" : [0, 0, 0, 0],
          "sampleRate" : 44100,
          "bitDepth" : 16,
          "numChannels" : 2,
          "integratedLUFS" : -21.2155620651072,
          "peakLevel" : 0.691677689552307,
          "metaData" : ""
        }
      ],
      "metadata" : {
        "timeAdded" : "20211202T164610.935539"
      }
    },
    {
      "id" : 32,
      "src" : "arFinalResult (online-video-cutter.com).mp4",
      "rect" : [0, 0, 324, 720],
      "lastMod" : "20211202T165858",
      "loudnessNormalization" : true,
      "sourceTracks" : [
        {
          "range" : [0, 18940],
          "type" : 2,
          "editRate" : 1000,
          "trackRect" : [0, 0, 0, 0],
          "sampleRate" : 48000,
          "bitDepth" : 16,
          "numChannels" : 2,
          "integratedLUFS" : -1.79769313486232e+308,
          "peakLevel" : 0.0,
          "metaData" : ""
        },
        {
          "range" : [0, 18980],
          "type" : 0,
          "editRate" : 1000,
          "trackRect" : [0, 0, 324, 720],
          "sampleRate" : "224459/5000",
          "bitDepth" : 24,
          "numChannels" : 0,
          "integratedLUFS" : 100.0,
          "peakLevel" : -1.0,
          "metaData" : ""
        }
      ],
      "metadata" : {
        "timeAdded" : "20211202T165926.459475"
      }
    },
    {
      "id" : 33,
      "src" : "Narration_Hackathon-AR-Dec-2021 16.m4a",
      "rect" : [0, 0, 0, 0],
      "lastMod" : "20211202T170342",
      "loudnessNormalization" : true,
      "sourceTracks" : [
        {
          "range" : [0, 155573664],
          "type" : 2,
          "editRate" : 10000000,
          "trackRect" : [0, 0, 0, 0],
          "sampleRate" : 44100,
          "bitDepth" : 16,
          "numChannels" : 2,
          "integratedLUFS" : -18.3702273567916,
          "peakLevel" : 0.98766303062439,
          "metaData" : ""
        }
      ],
      "metadata" : {
        "timeAdded" : "20211202T170344.995315"
      }
    },
    {
      "id" : 34,
      "src" : "yt1s.com - Pitch Perfect 2 Riff Off Full Performance_360p.mp4",
      "rect" : [0, 0, 640, 360],
      "lastMod" : "20211202T170533",
      "loudnessNormalization" : true,
      "sourceTracks" : [
        {
          "range" : [0, 7198158],
          "type" : 0,
          "editRate" : 30000,
          "trackRect" : [0, 0, 640, 360],
          "sampleRate" : "37463/1250",
          "bitDepth" : 24,
          "numChannels" : 0,
          "integratedLUFS" : 100.0,
          "peakLevel" : -1.0,
          "metaData" : ""
        },
        {
          "range" : [0, 10584064],
          "type" : 2,
          "editRate" : 44100,
          "trackRect" : [0, 0, 0, 0],
          "sampleRate" : 44100,
          "bitDepth" : 16,
          "numChannels" : 2,
          "integratedLUFS" : -22.7314815152447,
          "peakLevel" : 0.283004462718964,
          "metaData" : ""
        }
      ],
      "metadata" : {
        "timeAdded" : "20211202T170554.927438"
      }
    },
    {
      "id" : 35,
      "src" : "yt1s.com -  Taylor Swift   Shake it off Lyrics_v720P.mp4",
      "rect" : [0, 0, 1280, 720],
      "lastMod" : "20211202T170945",
      "loudnessNormalization" : true,
      "sourceTracks" : [
        {
          "range" : [0, 217900],
          "type" : 0,
          "editRate" : 1000,
          "trackRect" : [0, 0, 1280, 720],
          "sampleRate" : 30,
          "bitDepth" : 24,
          "numChannels" : 0,
          "integratedLUFS" : 100.0,
          "peakLevel" : -1.0,
          "metaData" : ""
        },
        {
          "range" : [0, 218036],
          "type" : 2,
          "editRate" : 1000,
          "trackRect" : [0, 0, 0, 0],
          "sampleRate" : 44100,
          "bitDepth" : 16,
          "numChannels" : 2,
          "integratedLUFS" : -10.7806550783731,
          "peakLevel" : 1.21453034877777,
          "metaData" : ""
        }
      ],
      "metadata" : {
        "timeAdded" : "20211202T170949.986806"
      }
    },
    {
      "id" : 36,
      "src" : "Narration_Hackathon-AR-Dec-2021 17.m4a",
      "rect" : [0, 0, 0, 0],
      "lastMod" : "20211202T171736",
      "loudnessNormalization" : true,
      "sourceTracks" : [
        {
          "range" : [0, 69892064],
          "type" : 2,
          "editRate" : 10000000,
          "trackRect" : [0, 0, 0, 0],
          "sampleRate" : 44100,
          "bitDepth" : 16,
          "numChannels" : 2,
          "integratedLUFS" : -13.1790763744575,
          "peakLevel" : 1.00495553016663,
          "metaData" : ""
        }
      ],
      "metadata" : {
        "timeAdded" : "20211202T171738.144857"
      }
    },
    {
      "id" : 37,
      "src" : "Narration_Hackathon-AR-Dec-2021 18.m4a",
      "rect" : [0, 0, 0, 0],
      "lastMod" : "20211202T172215",
      "loudnessNormalization" : true,
      "sourceTracks" : [
        {
          "range" : [0, 133050336],
          "type" : 2,
          "editRate" : 10000000,
          "trackRect" : [0, 0, 0, 0],
          "sampleRate" : 44100,
          "bitDepth" : 16,
          "numChannels" : 2,
          "integratedLUFS" : -10.6788807233333,
          "peakLevel" : 1.00734233856201,
          "metaData" : ""
        }
      ],
      "metadata" : {
        "timeAdded" : "20211202T172217.716573"
      }
    },
    {
      "id" : 38,
      "src" : "yt1s.com - Law and Order Voice Intro DUN DUN HD Lyrics.mp4 (1).mp4",
      "rect" : [0, 0, 640, 360],
      "lastMod" : "20211202T172324",
      "loudnessNormalization" : true,
      "sourceTracks" : [
        {
          "range" : [0, 8937],
          "type" : 0,
          "editRate" : 600,
          "trackRect" : [0, 0, 640, 360],
          "sampleRate" : "240011/10000",
          "bitDepth" : 24,
          "numChannels" : 0,
          "integratedLUFS" : 100.0,
          "peakLevel" : -1.0,
          "metaData" : ""
        },
        {
          "range" : [0, 662528],
          "type" : 2,
          "editRate" : 44100,
          "trackRect" : [0, 0, 0, 0],
          "sampleRate" : 44100,
          "bitDepth" : 16,
          "numChannels" : 2,
          "integratedLUFS" : -14.0799648763228,
          "peakLevel" : 0.961770057678223,
          "metaData" : ""
        }
      ],
      "metadata" : {
        "timeAdded" : "20211202T172337.638394"
      }
    },
    {
      "id" : 39,
      "src" : "handshake_mark_light.png",
      "rect" : [0, 0, 300, 300],
      "lastMod" : "20211202T173440",
      "loudnessNormalization" : true,
      "sourceTracks" : [
        {
          "range" : [0, 1],
          "type" : 1,
          "editRate" : 10000000,
          "trackRect" : [0, 0, 300, 300],
          "sampleRate" : 0,
          "bitDepth" : 32,
          "numChannels" : 0,
          "integratedLUFS" : 100.0,
          "peakLevel" : -1.0,
          "metaData" : ""
        }
      ],
      "metadata" : {
        "timeAdded" : "20211202T173442.904402"
      }
    }
  ],
  "timeline" : {
    "id" : 40,
    "sceneTrack" : {
      "scenes" : [
        {
          "csml" : {
            "tracks" : [
              {
                "trackIndex" : 0,
                "medias" : [
                  {
                    "id" : 41,
                    "_type" : "Callout",
                    "def" : {
                      "kind" : "remix",
                      "shape" : "text",
                      "style" : "basic",
                      "enable-ligatures" : {
                        "type" : "double",
                        "defaultValue" : 1.0,
                        "interp" : "linr"
                      },
                      "height" : {
                        "type" : "double",
                        "defaultValue" : 99.0566037735849,
                        "interp" : "linr"
                      },
                      "line-spacing" : {
                        "type" : "double",
                        "defaultValue" : 0.0,
                        "interp" : "linr"
                      },
                      "width" : {
                        "type" : "double",
                        "defaultValue" : 577.358490566037,
                        "interp" : "linr"
                      },
                      "word-wrap" : {
                        "type" : "double",
                        "defaultValue" : 1.0,
                        "interp" : "linr"
                      },
                      "horizontal-alignment" : "center",
                      "resize-behavior" : "resizeText",
                      "text" : "Dylan Andersen  ",
                      "vertical-alignment" : "center",
                      "font" : {
                        "color-blue" : {
                          "type" : "double",
                          "defaultValue" : 1.0,
                          "interp" : "linr"
                        },
                        "color-green" : {
                          "type" : "double",
                          "defaultValue" : 1.0,
                          "interp" : "linr"
                        },
                        "color-red" : {
                          "type" : "double",
                          "defaultValue" : 1.0,
                          "interp" : "linr"
                        },
                        "size" : {
                          "type" : "double",
                          "defaultValue" : 96.0,
                          "interp" : "linr"
                        },
                        "tracking" : {
                          "type" : "double",
                          "defaultValue" : 0.0,
                          "interp" : "linr"
                        },
                        "name" : "Montserrat",
                        "weight" : "Regular"
                      },
                      "textAttributes" : {
                        "type" : "textAttributeList",
                        "keyframes" : [
                          {
                            "endTime" : 0,
                            "time" : 0,
                            "value" : [{"name":"kerning","rangeEnd":16,"rangeStart":0,"value":0,"valueType":"double"},{"name":"fontItalic","rangeEnd":16,"rangeStart":0,"value":0,"valueType":"int"},{"name":"underline","rangeEnd":16,"rangeStart":0,"value":0,"valueType":"int"},{"name":"fgColor","rangeEnd":16,"rangeStart":0,"value":"(255,255,255,255)","valueType":"color"},{"name":"fontName","rangeEnd":16,"rangeStart":0,"value":"Montserrat","valueType":"string"},{"name":"fontSize","rangeEnd":16,"rangeStart":0,"value":96,"valueType":"double"},{"name":"strikethrough","rangeEnd":16,"rangeStart":0,"value":0,"valueType":"int"},{"name":"fontWeight","rangeEnd":16,"rangeStart":0,"value":400,"valueType":"int"}],
                            "duration" : 0
                          }
                        ]
                      }
                    },
                    "attributes" : {
                      "ident" : "",
                      "autoRotateText" : true
                    },
                    "parameters" : {
                      "translation0" : {
                        "type" : "double",
                        "defaultValue" : -559.11320754717,
                        "interp" : "eioe"
                      },
                      "translation1" : {
                        "type" : "double",
                        "defaultValue" : -262.735846789378,
                        "interp" : "eioe"
                      },
                      "sourceCrop0" : {
                        "type" : "double",
                        "defaultValue" : 0.0,
                        "interp" : "eioe"
                      },
                      "sourceCrop1" : {
                        "type" : "double",
                        "defaultValue" : 0.0,
                        "interp" : "eioe"
                      },
                      "sourceCrop2" : {
                        "type" : "double",
                        "defaultValue" : 0.0,
                        "interp" : "eioe"
                      },
                      "sourceCrop3" : {
                        "type" : "double",
                        "defaultValue" : 0.0,
                        "interp" : "eioe"
                      },
                      "geometryCrop0" : {
                        "type" : "double",
                        "defaultValue" : 0.0,
                        "interp" : "eioe"
                      },
                      "geometryCrop1" : {
                        "type" : "double",
                        "defaultValue" : 0.0,
                        "interp" : "eioe"
                      },
                      "geometryCrop2" : {
                        "type" : "double",
                        "defaultValue" : 0.0,
                        "interp" : "eioe"
                      },
                      "geometryCrop3" : {
                        "type" : "double",
                        "defaultValue" : 0.0,
                        "interp" : "eioe"
                      }
                    },
                    "effects" : [

                    ],
                    "start" : 0,
                    "duration" : 1016,
                    "mediaStart" : 0,
                    "mediaDuration" : 1016,
                    "scalar" : 1,
                    "metadata" : {
                      "clipSpeedAttribute" : false,
                      "default-HAlign" : "center",
                      "default-LineSpace" : 0.0,
                      "default-VAlign" : "center",
                      "default-height" : 250.0,
                      "default-text-attributes" : null,
                      "default-translation0" : 0.0,
                      "default-translation1" : 0.0,
                      "default-width" : 400.0
                    },
                    "animationTracks" : {

                    }
                  },
                  {
                    "id" : 42,
                    "_type" : "UnifiedMedia",
                    "video" : 
                        {
                          "id" : 43,
                          "_type" : "VMFile",
                          "src" : 11,
                          "trackNumber" : 1,
                          "attributes" : {
                            "ident" : "arCube"
                          },
                          "parameters" : {
                            "translation1" : {
                              "type" : "double",
                              "defaultValue" : -8.5265128291212e-14,
                              "interp" : "eioe"
                            },
                            "scale0" : {
                              "type" : "double",
                              "defaultValue" : 1.5,
                              "interp" : "eioe"
                            },
                            "scale1" : {
                              "type" : "double",
                              "defaultValue" : 1.5,
                              "interp" : "eioe"
                            },
                            "sourceCrop0" : {
                              "type" : "double",
                              "defaultValue" : 0.0,
                              "interp" : "eioe"
                            },
                            "sourceCrop1" : {
                              "type" : "double",
                              "defaultValue" : 0.0,
                              "interp" : "eioe"
                            },
                            "sourceCrop2" : {
                              "type" : "double",
                              "defaultValue" : 0.0,
                              "interp" : "eioe"
                            },
                            "sourceCrop3" : {
                              "type" : "double",
                              "defaultValue" : 0.0,
                              "interp" : "eioe"
                            },
                            "geometryCrop0" : {
                              "type" : "double",
                              "defaultValue" : 0.0,
                              "interp" : "eioe"
                            },
                            "geometryCrop1" : {
                              "type" : "double",
                              "defaultValue" : 0.0,
                              "interp" : "eioe"
                            },
                            "geometryCrop2" : {
                              "type" : "double",
                              "defaultValue" : 0.0,
                              "interp" : "eioe"
                            },
                            "geometryCrop3" : {
                              "type" : "double",
                              "defaultValue" : 0.0,
                              "interp" : "eioe"
                            }
                          },
                          "effects" : [

                          ],
                          "start" : 1016,
                          "duration" : 501,
                          "mediaStart" : 145,
                          "mediaDuration" : 501,
                          "scalar" : 1,
                          "animationTracks" : {

                          }
                        },
                    "audio" : 
                        {
                          "id" : 44,
                          "_type" : "AMFile",
                          "src" : 11,
                          "trackNumber" : 0,
                          "attributes" : {
                            "ident" : "",
                            "gain" : 1.0,
                            "mixToMono" : false,
                            "loudnessNormalization" : true
                          },
                            "channelNumber" : "0,1",
                          "effects" : [

                          ],
                          "start" : 1016,
                          "duration" : 501,
                          "mediaStart" : 145,
                          "mediaDuration" : 501,
                          "scalar" : 1,
                          "animationTracks" : {

                          }
                        }
,
                    "start" : 1016,
                    "duration" : 501,
                    "mediaStart" : 0,
                    "mediaDuration" : 646,
                    "scalar" : 1,
                    "metadata" : {
                      "clipSpeedAttribute" : false,
                      "default-height" : 720.0,
                      "default-scale0" : 1.0,
                      "default-scale1" : 1.0,
                      "default-translation0" : 0.0,
                      "default-translation1" : 0.0,
                      "default-width" : 324.0
                    }
                  },
                  {
                    "id" : 45,
                    "_type" : "UnifiedMedia",
                    "video" : 
                        {
                          "id" : 46,
                          "_type" : "VMFile",
                          "src" : 11,
                          "trackNumber" : 1,
                          "attributes" : {
                            "ident" : "arCube"
                          },
                          "parameters" : {
                            "translation0" : {
                              "type" : "double",
                              "defaultValue" : 298.125,
                              "interp" : "eioe"
                            },
                            "scale0" : {
                              "type" : "double",
                              "defaultValue" : 1.5,
                              "interp" : "eioe"
                            },
                            "scale1" : {
                              "type" : "double",
                              "defaultValue" : 1.5,
                              "interp" : "eioe"
                            },
                            "sourceCrop0" : {
                              "type" : "double",
                              "defaultValue" : 0.0,
                              "interp" : "eioe"
                            },
                            "sourceCrop1" : {
                              "type" : "double",
                              "defaultValue" : 0.0,
                              "interp" : "eioe"
                            },
                            "sourceCrop2" : {
                              "type" : "double",
                              "defaultValue" : 0.0,
                              "interp" : "eioe"
                            },
                            "sourceCrop3" : {
                              "type" : "double",
                              "defaultValue" : 0.0,
                              "interp" : "eioe"
                            },
                            "geometryCrop0" : {
                              "type" : "double",
                              "defaultValue" : 0.0,
                              "interp" : "eioe"
                            },
                            "geometryCrop1" : {
                              "type" : "double",
                              "defaultValue" : 0.0,
                              "interp" : "eioe"
                            },
                            "geometryCrop2" : {
                              "type" : "double",
                              "defaultValue" : 0.0,
                              "interp" : "eioe"
                            },
                            "geometryCrop3" : {
                              "type" : "double",
                              "defaultValue" : 0.0,
                              "interp" : "eioe"
                            }
                          },
                          "effects" : [

                          ],
                          "start" : 1517,
                          "duration" : 428,
                          "mediaStart" : 202,
                          "mediaDuration" : 428,
                          "scalar" : 1,
                          "animationTracks" : {

                          }
                        },
                    "audio" : 
                        {
                          "id" : 47,
                          "_type" : "AMFile",
                          "src" : 11,
                          "trackNumber" : 0,
                          "attributes" : {
                            "ident" : "",
                            "gain" : 1.0,
                            "mixToMono" : false,
                            "loudnessNormalization" : true
                          },
                            "channelNumber" : "0,1",
                          "effects" : [

                          ],
                          "start" : 1517,
                          "duration" : 428,
                          "mediaStart" : 202,
                          "mediaDuration" : 428,
                          "scalar" : 1,
                          "animationTracks" : {

                          }
                        }
,
                    "start" : 1517,
                    "duration" : 428,
                    "mediaStart" : 0,
                    "mediaDuration" : 645,
                    "scalar" : 1,
                    "metadata" : {
                      "clipSpeedAttribute" : false,
                      "default-height" : 720.0,
                      "default-scale0" : 1.0,
                      "default-scale1" : 1.0,
                      "default-translation0" : 0.0,
                      "default-translation1" : 0.0,
                      "default-width" : 324.0
                    }
                  },
                  {
                    "id" : 48,
                    "_type" : "UnifiedMedia",
                    "video" : 
                        {
                          "id" : 49,
                          "_type" : "VMFile",
                          "src" : 4,
                          "trackNumber" : 1,
                          "attributes" : {
                            "ident" : "arHandInRL (online-video-cutter.com)"
                          },
                          "parameters" : {
                            "scale0" : {
                              "type" : "double",
                              "defaultValue" : 1.5,
                              "interp" : "eioe"
                            },
                            "scale1" : {
                              "type" : "double",
                              "defaultValue" : 1.5,
                              "interp" : "eioe"
                            },
                            "sourceCrop0" : {
                              "type" : "double",
                              "defaultValue" : 0.0,
                              "interp" : "eioe"
                            },
                            "sourceCrop1" : {
                              "type" : "double",
                              "defaultValue" : 0.0,
                              "interp" : "eioe"
                            },
                            "sourceCrop2" : {
                              "type" : "double",
                              "defaultValue" : 0.0,
                              "interp" : "eioe"
                            },
                            "sourceCrop3" : {
                              "type" : "double",
                              "defaultValue" : 0.0,
                              "interp" : "eioe"
                            },
                            "geometryCrop0" : {
                              "type" : "double",
                              "defaultValue" : 0.0,
                              "interp" : "eioe"
                            },
                            "geometryCrop1" : {
                              "type" : "double",
                              "defaultValue" : 0.0,
                              "interp" : "eioe"
                            },
                            "geometryCrop2" : {
                              "type" : "double",
                              "defaultValue" : 0.0,
                              "interp" : "eioe"
                            },
                            "geometryCrop3" : {
                              "type" : "double",
                              "defaultValue" : 0.0,
                              "interp" : "eioe"
                            }
                          },
                          "effects" : [

                          ],
                          "start" : 1945,
                          "duration" : 223,
                          "mediaStart" : 0,
                          "mediaDuration" : 223,
                          "scalar" : 1,
                          "animationTracks" : {

                          }
                        },
                    "audio" : 
                        {
                          "id" : 50,
                          "_type" : "AMFile",
                          "src" : 4,
                          "trackNumber" : 0,
                          "attributes" : {
                            "ident" : "",
                            "gain" : 1.0,
                            "mixToMono" : false,
                            "loudnessNormalization" : true
                          },
                            "channelNumber" : "0,1",
                          "effects" : [

                          ],
                          "start" : 1945,
                          "duration" : 223,
                          "mediaStart" : 0,
                          "mediaDuration" : 223,
                          "scalar" : 1,
                          "animationTracks" : {

                          }
                        }
,
                    "start" : 1945,
                    "duration" : 223,
                    "mediaStart" : 0,
                    "mediaDuration" : 223,
                    "scalar" : 1,
                    "metadata" : {
                      "clipSpeedAttribute" : false,
                      "default-height" : 720.0,
                      "default-scale0" : 1.0,
                      "default-scale1" : 1.0,
                      "default-width" : 324.0
                    }
                  },
                  {
                    "id" : 51,
                    "_type" : "UnifiedMedia",
                    "video" : 
                        {
                          "id" : 52,
                          "_type" : "VMFile",
                          "src" : 9,
                          "trackNumber" : 1,
                          "attributes" : {
                            "ident" : "arHandTrackingOnScreen (online-video-cutter.com)"
                          },
                          "parameters" : {
                            "scale0" : {
                              "type" : "double",
                              "defaultValue" : 1.5,
                              "interp" : "eioe"
                            },
                            "scale1" : {
                              "type" : "double",
                              "defaultValue" : 1.5,
                              "interp" : "eioe"
                            },
                            "sourceCrop0" : {
                              "type" : "double",
                              "defaultValue" : 0.0,
                              "interp" : "eioe"
                            },
                            "sourceCrop1" : {
                              "type" : "double",
                              "defaultValue" : 0.0,
                              "interp" : "eioe"
                            },
                            "sourceCrop2" : {
                              "type" : "double",
                              "defaultValue" : 0.0,
                              "interp" : "eioe"
                            },
                            "sourceCrop3" : {
                              "type" : "double",
                              "defaultValue" : 0.0,
                              "interp" : "eioe"
                            },
                            "geometryCrop0" : {
                              "type" : "double",
                              "defaultValue" : 0.0,
                              "interp" : "eioe"
                            },
                            "geometryCrop1" : {
                              "type" : "double",
                              "defaultValue" : 0.0,
                              "interp" : "eioe"
                            },
                            "geometryCrop2" : {
                              "type" : "double",
                              "defaultValue" : 0.0,
                              "interp" : "eioe"
                            },
                            "geometryCrop3" : {
                              "type" : "double",
                              "defaultValue" : 0.0,
                              "interp" : "eioe"
                            }
                          },
                          "effects" : [

                          ],
                          "start" : 2168,
                          "duration" : 480,
                          "mediaStart" : 0,
                          "mediaDuration" : 480,
                          "scalar" : 1,
                          "animationTracks" : {

                          }
                        },
                    "audio" : 
                        {
                          "id" : 53,
                          "_type" : "AMFile",
                          "src" : 9,
                          "trackNumber" : 0,
                          "attributes" : {
                            "ident" : "",
                            "gain" : 1.0,
                            "mixToMono" : false,
                            "loudnessNormalization" : true
                          },
                            "channelNumber" : "0,1",
                          "effects" : [

                          ],
                          "start" : 2168,
                          "duration" : 480,
                          "mediaStart" : 0,
                          "mediaDuration" : 480,
                          "scalar" : 1,
                          "animationTracks" : {

                          }
                        }
,
                    "start" : 2168,
                    "duration" : 480,
                    "mediaStart" : 0,
                    "mediaDuration" : 480,
                    "scalar" : 1,
                    "metadata" : {
                      "clipSpeedAttribute" : false,
                      "default-height" : 720.0,
                      "default-scale0" : 1.0,
                      "default-scale1" : 1.0,
                      "default-width" : 324.0
                    }
                  },
                  {
                    "id" : 54,
                    "_type" : "UnifiedMedia",
                    "video" : 
                        {
                          "id" : 55,
                          "_type" : "VMFile",
                          "src" : 8,
                          "trackNumber" : 1,
                          "attributes" : {
                            "ident" : "arHandTrackingInRL (online-video-cutter.com)"
                          },
                          "parameters" : {
                            "scale0" : {
                              "type" : "double",
                              "defaultValue" : 1.5,
                              "interp" : "eioe"
                            },
                            "scale1" : {
                              "type" : "double",
                              "defaultValue" : 1.5,
                              "interp" : "eioe"
                            },
                            "sourceCrop0" : {
                              "type" : "double",
                              "defaultValue" : 0.0,
                              "interp" : "eioe"
                            },
                            "sourceCrop1" : {
                              "type" : "double",
                              "defaultValue" : 0.0,
                              "interp" : "eioe"
                            },
                            "sourceCrop2" : {
                              "type" : "double",
                              "defaultValue" : 0.0,
                              "interp" : "eioe"
                            },
                            "sourceCrop3" : {
                              "type" : "double",
                              "defaultValue" : 0.0,
                              "interp" : "eioe"
                            },
                            "geometryCrop0" : {
                              "type" : "double",
                              "defaultValue" : 0.0,
                              "interp" : "eioe"
                            },
                            "geometryCrop1" : {
                              "type" : "double",
                              "defaultValue" : 0.0,
                              "interp" : "eioe"
                            },
                            "geometryCrop2" : {
                              "type" : "double",
                              "defaultValue" : 0.0,
                              "interp" : "eioe"
                            },
                            "geometryCrop3" : {
                              "type" : "double",
                              "defaultValue" : 0.0,
                              "interp" : "eioe"
                            }
                          },
                          "effects" : [

                          ],
                          "start" : 2648,
                          "duration" : 450,
                          "mediaStart" : 0,
                          "mediaDuration" : 450,
                          "scalar" : 1,
                          "animationTracks" : {

                          }
                        },
                    "audio" : 
                        {
                          "id" : 56,
                          "_type" : "AMFile",
                          "src" : 8,
                          "trackNumber" : 0,
                          "attributes" : {
                            "ident" : "",
                            "gain" : 1.0,
                            "mixToMono" : false,
                            "loudnessNormalization" : true
                          },
                            "channelNumber" : "0,1",
                          "effects" : [

                          ],
                          "start" : 2648,
                          "duration" : 450,
                          "mediaStart" : 0,
                          "mediaDuration" : 450,
                          "scalar" : 1,
                          "animationTracks" : {

                          }
                        }
,
                    "start" : 2648,
                    "duration" : 450,
                    "mediaStart" : 0,
                    "mediaDuration" : 450,
                    "scalar" : 1,
                    "metadata" : {
                      "clipSpeedAttribute" : false,
                      "default-height" : 720.0,
                      "default-scale0" : 1.0,
                      "default-scale1" : 1.0,
                      "default-width" : 324.0
                    }
                  },
                  {
                    "id" : 57,
                    "_type" : "UnifiedMedia",
                    "video" : 
                        {
                          "id" : 58,
                          "_type" : "VMFile",
                          "src" : 2,
                          "trackNumber" : 1,
                          "attributes" : {
                            "ident" : "arHandTracking (online-video-cutter.com)"
                          },
                          "parameters" : {
                            "scale0" : {
                              "type" : "double",
                              "defaultValue" : 1.5,
                              "interp" : "eioe"
                            },
                            "scale1" : {
                              "type" : "double",
                              "defaultValue" : 1.5,
                              "interp" : "eioe"
                            },
                            "sourceCrop0" : {
                              "type" : "double",
                              "defaultValue" : 0.0,
                              "interp" : "eioe"
                            },
                            "sourceCrop1" : {
                              "type" : "double",
                              "defaultValue" : 0.0,
                              "interp" : "eioe"
                            },
                            "sourceCrop2" : {
                              "type" : "double",
                              "defaultValue" : 0.0,
                              "interp" : "eioe"
                            },
                            "sourceCrop3" : {
                              "type" : "double",
                              "defaultValue" : 0.0,
                              "interp" : "eioe"
                            },
                            "geometryCrop0" : {
                              "type" : "double",
                              "defaultValue" : 0.0,
                              "interp" : "eioe"
                            },
                            "geometryCrop1" : {
                              "type" : "double",
                              "defaultValue" : 0.0,
                              "interp" : "eioe"
                            },
                            "geometryCrop2" : {
                              "type" : "double",
                              "defaultValue" : 0.0,
                              "interp" : "eioe"
                            },
                            "geometryCrop3" : {
                              "type" : "double",
                              "defaultValue" : 0.0,
                              "interp" : "eioe"
                            }
                          },
                          "effects" : [

                          ],
                          "start" : 3098,
                          "duration" : 544,
                          "mediaStart" : 0,
                          "mediaDuration" : 544,
                          "scalar" : 1,
                          "animationTracks" : {

                          }
                        },
                    "audio" : 
                        {
                          "id" : 59,
                          "_type" : "AMFile",
                          "src" : 2,
                          "trackNumber" : 0,
                          "attributes" : {
                            "ident" : "",
                            "gain" : 1.0,
                            "mixToMono" : false,
                            "loudnessNormalization" : true
                          },
                            "channelNumber" : "0,1",
                          "effects" : [

                          ],
                          "start" : 3098,
                          "duration" : 544,
                          "mediaStart" : 0,
                          "mediaDuration" : 544,
                          "scalar" : 1,
                          "animationTracks" : {

                          }
                        }
,
                    "start" : 3098,
                    "duration" : 544,
                    "mediaStart" : 0,
                    "mediaDuration" : 544,
                    "scalar" : 1,
                    "metadata" : {
                      "clipSpeedAttribute" : false,
                      "default-height" : 720.0,
                      "default-scale0" : 1.0,
                      "default-scale1" : 1.0,
                      "default-width" : 324.0
                    }
                  },
                  {
                    "id" : 60,
                    "_type" : "UnifiedMedia",
                    "video" : 
                        {
                          "id" : 61,
                          "_type" : "VMFile",
                          "src" : 1,
                          "trackNumber" : 1,
                          "attributes" : {
                            "ident" : "arHandTrackingCat (online-video-cutter.com)"
                          },
                          "parameters" : {
                            "scale0" : {
                              "type" : "double",
                              "defaultValue" : 1.5,
                              "interp" : "eioe"
                            },
                            "scale1" : {
                              "type" : "double",
                              "defaultValue" : 1.5,
                              "interp" : "eioe"
                            },
                            "sourceCrop0" : {
                              "type" : "double",
                              "defaultValue" : 0.0,
                              "interp" : "eioe"
                            },
                            "sourceCrop1" : {
                              "type" : "double",
                              "defaultValue" : 0.0,
                              "interp" : "eioe"
                            },
                            "sourceCrop2" : {
                              "type" : "double",
                              "defaultValue" : 0.0,
                              "interp" : "eioe"
                            },
                            "sourceCrop3" : {
                              "type" : "double",
                              "defaultValue" : 0.0,
                              "interp" : "eioe"
                            },
                            "geometryCrop0" : {
                              "type" : "double",
                              "defaultValue" : 0.0,
                              "interp" : "eioe"
                            },
                            "geometryCrop1" : {
                              "type" : "double",
                              "defaultValue" : 0.0,
                              "interp" : "eioe"
                            },
                            "geometryCrop2" : {
                              "type" : "double",
                              "defaultValue" : 0.0,
                              "interp" : "eioe"
                            },
                            "geometryCrop3" : {
                              "type" : "double",
                              "defaultValue" : 0.0,
                              "interp" : "eioe"
                            }
                          },
                          "effects" : [

                          ],
                          "start" : 3642,
                          "duration" : 622,
                          "mediaStart" : 0,
                          "mediaDuration" : 622,
                          "scalar" : 1,
                          "animationTracks" : {

                          }
                        },
                    "audio" : 
                        {
                          "id" : 62,
                          "_type" : "AMFile",
                          "src" : 1,
                          "trackNumber" : 0,
                          "attributes" : {
                            "ident" : "",
                            "gain" : 1.0,
                            "mixToMono" : false,
                            "loudnessNormalization" : true
                          },
                            "channelNumber" : "0,1",
                          "effects" : [

                          ],
                          "start" : 3642,
                          "duration" : 622,
                          "mediaStart" : 0,
                          "mediaDuration" : 622,
                          "scalar" : 1,
                          "animationTracks" : {

                          }
                        }
,
                    "start" : 3642,
                    "duration" : 622,
                    "mediaStart" : 0,
                    "mediaDuration" : 622,
                    "scalar" : 1,
                    "metadata" : {
                      "clipSpeedAttribute" : false,
                      "default-height" : 720.0,
                      "default-scale0" : 1.0,
                      "default-scale1" : 1.0,
                      "default-width" : 324.0
                    }
                  },
                  {
                    "id" : 63,
                    "_type" : "UnifiedMedia",
                    "video" : 
                        {
                          "id" : 64,
                          "_type" : "VMFile",
                          "src" : 3,
                          "trackNumber" : 1,
                          "attributes" : {
                            "ident" : "arHandAddBoxCollider (online-video-cutter.com)"
                          },
                          "parameters" : {
                            "translation0" : {
                              "type" : "double",
                              "defaultValue" : -5.15143483426073e-14,
                              "interp" : "eioe"
                            },
                            "translation1" : {
                              "type" : "double",
                              "defaultValue" : 14.0750000000003,
                              "interp" : "eioe"
                            },
                            "scale0" : {
                              "type" : "double",
                              "defaultValue" : 0.994880319148936,
                              "interp" : "eioe"
                            },
                            "scale1" : {
                              "type" : "double",
                              "defaultValue" : 0.994880319148937,
                              "interp" : "eioe"
                            },
                            "sourceCrop0" : {
                              "type" : "double",
                              "defaultValue" : 0.0,
                              "interp" : "eioe"
                            },
                            "sourceCrop1" : {
                              "type" : "double",
                              "defaultValue" : 0.0,
                              "interp" : "eioe"
                            },
                            "sourceCrop2" : {
                              "type" : "double",
                              "defaultValue" : 0.0,
                              "interp" : "eioe"
                            },
                            "sourceCrop3" : {
                              "type" : "double",
                              "defaultValue" : 0.0,
                              "interp" : "eioe"
                            },
                            "geometryCrop0" : {
                              "type" : "double",
                              "defaultValue" : 0.0,
                              "interp" : "eioe"
                            },
                            "geometryCrop1" : {
                              "type" : "double",
                              "defaultValue" : 0.0,
                              "interp" : "eioe"
                            },
                            "geometryCrop2" : {
                              "type" : "double",
                              "defaultValue" : 0.0,
                              "interp" : "eioe"
                            },
                            "geometryCrop3" : {
                              "type" : "double",
                              "defaultValue" : 0.0,
                              "interp" : "eioe"
                            }
                          },
                          "effects" : [

                          ],
                          "start" : 4264,
                          "duration" : 441,
                          "mediaStart" : 0,
                          "mediaDuration" : 441,
                          "scalar" : 1,
                          "animationTracks" : {

                          }
                        },
                    "audio" : 
                        {
                          "id" : 65,
                          "_type" : "AMFile",
                          "src" : 3,
                          "trackNumber" : 0,
                          "attributes" : {
                            "ident" : "",
                            "gain" : 1.0,
                            "mixToMono" : false,
                            "loudnessNormalization" : true
                          },
                            "channelNumber" : "0,1",
                          "effects" : [

                          ],
                          "start" : 4264,
                          "duration" : 441,
                          "mediaStart" : 0,
                          "mediaDuration" : 441,
                          "scalar" : 1,
                          "animationTracks" : {

                          }
                        }
,
                    "start" : 4264,
                    "duration" : 441,
                    "mediaStart" : 0,
                    "mediaDuration" : 441,
                    "scalar" : 1,
                    "metadata" : {
                      "clipSpeedAttribute" : false,
                      "default-height" : 126.9,
                      "default-scale0" : 0.16875,
                      "default-scale1" : 0.16875,
                      "default-translation0" : 0.0,
                      "default-translation1" : 0.0,
                      "default-width" : 324.0
                    }
                  },
                  {
                    "id" : 66,
                    "_type" : "UnifiedMedia",
                    "video" : 
                        {
                          "id" : 67,
                          "_type" : "VMFile",
                          "src" : 7,
                          "trackNumber" : 1,
                          "attributes" : {
                            "ident" : "arHandCollisionDetection (online-video-cutter.com)"
                          },
                          "parameters" : {
                            "scale0" : {
                              "type" : "double",
                              "defaultValue" : 1.5,
                              "interp" : "eioe"
                            },
                            "scale1" : {
                              "type" : "double",
                              "defaultValue" : 1.5,
                              "interp" : "eioe"
                            },
                            "sourceCrop0" : {
                              "type" : "double",
                              "defaultValue" : 0.0,
                              "interp" : "eioe"
                            },
                            "sourceCrop1" : {
                              "type" : "double",
                              "defaultValue" : 0.0,
                              "interp" : "eioe"
                            },
                            "sourceCrop2" : {
                              "type" : "double",
                              "defaultValue" : 0.0,
                              "interp" : "eioe"
                            },
                            "sourceCrop3" : {
                              "type" : "double",
                              "defaultValue" : 0.0,
                              "interp" : "eioe"
                            },
                            "geometryCrop0" : {
                              "type" : "double",
                              "defaultValue" : 0.0,
                              "interp" : "eioe"
                            },
                            "geometryCrop1" : {
                              "type" : "double",
                              "defaultValue" : 0.0,
                              "interp" : "eioe"
                            },
                            "geometryCrop2" : {
                              "type" : "double",
                              "defaultValue" : 0.0,
                              "interp" : "eioe"
                            },
                            "geometryCrop3" : {
                              "type" : "double",
                              "defaultValue" : 0.0,
                              "interp" : "eioe"
                            }
                          },
                          "effects" : [

                          ],
                          "start" : 4705,
                          "duration" : 559,
                          "mediaStart" : 0,
                          "mediaDuration" : 559,
                          "scalar" : 1,
                          "animationTracks" : {

                          }
                        },
                    "audio" : 
                        {
                          "id" : 68,
                          "_type" : "AMFile",
                          "src" : 7,
                          "trackNumber" : 0,
                          "attributes" : {
                            "ident" : "",
                            "gain" : 1.0,
                            "mixToMono" : false,
                            "loudnessNormalization" : true
                          },
                            "channelNumber" : "0,1",
                          "effects" : [

                          ],
                          "start" : 4705,
                          "duration" : 559,
                          "mediaStart" : 0,
                          "mediaDuration" : 559,
                          "scalar" : 1,
                          "animationTracks" : {

                          }
                        }
,
                    "start" : 4705,
                    "duration" : 559,
                    "mediaStart" : 0,
                    "mediaDuration" : 559,
                    "scalar" : 1,
                    "metadata" : {
                      "clipSpeedAttribute" : false,
                      "default-height" : 720.0,
                      "default-scale0" : 1.0,
                      "default-scale1" : 1.0,
                      "default-width" : 324.0
                    }
                  },
                  {
                    "id" : 69,
                    "_type" : "UnifiedMedia",
                    "video" : 
                        {
                          "id" : 70,
                          "_type" : "VMFile",
                          "src" : 6,
                          "trackNumber" : 1,
                          "attributes" : {
                            "ident" : "arHandMoving (online-video-cutter.com)"
                          },
                          "parameters" : {
                            "scale0" : {
                              "type" : "double",
                              "defaultValue" : 1.5,
                              "interp" : "eioe"
                            },
                            "scale1" : {
                              "type" : "double",
                              "defaultValue" : 1.5,
                              "interp" : "eioe"
                            },
                            "sourceCrop0" : {
                              "type" : "double",
                              "defaultValue" : 0.0,
                              "interp" : "eioe"
                            },
                            "sourceCrop1" : {
                              "type" : "double",
                              "defaultValue" : 0.0,
                              "interp" : "eioe"
                            },
                            "sourceCrop2" : {
                              "type" : "double",
                              "defaultValue" : 0.0,
                              "interp" : "eioe"
                            },
                            "sourceCrop3" : {
                              "type" : "double",
                              "defaultValue" : 0.0,
                              "interp" : "eioe"
                            },
                            "geometryCrop0" : {
                              "type" : "double",
                              "defaultValue" : 0.0,
                              "interp" : "eioe"
                            },
                            "geometryCrop1" : {
                              "type" : "double",
                              "defaultValue" : 0.0,
                              "interp" : "eioe"
                            },
                            "geometryCrop2" : {
                              "type" : "double",
                              "defaultValue" : 0.0,
                              "interp" : "eioe"
                            },
                            "geometryCrop3" : {
                              "type" : "double",
                              "defaultValue" : 0.0,
                              "interp" : "eioe"
                            }
                          },
                          "effects" : [

                          ],
                          "start" : 5264,
                          "duration" : 414,
                          "mediaStart" : 0,
                          "mediaDuration" : 414,
                          "scalar" : 1,
                          "animationTracks" : {

                          }
                        },
                    "audio" : 
                        {
                          "id" : 71,
                          "_type" : "AMFile",
                          "src" : 6,
                          "trackNumber" : 0,
                          "attributes" : {
                            "ident" : "",
                            "gain" : 1.0,
                            "mixToMono" : false,
                            "loudnessNormalization" : true
                          },
                            "channelNumber" : "0,1",
                          "effects" : [

                          ],
                          "start" : 5264,
                          "duration" : 414,
                          "mediaStart" : 0,
                          "mediaDuration" : 414,
                          "scalar" : 1,
                          "animationTracks" : {

                          }
                        }
,
                    "start" : 5264,
                    "duration" : 414,
                    "mediaStart" : 0,
                    "mediaDuration" : 414,
                    "scalar" : 1,
                    "metadata" : {
                      "clipSpeedAttribute" : false,
                      "default-height" : 720.0,
                      "default-scale0" : 1.0,
                      "default-scale1" : 1.0,
                      "default-width" : 324.0
                    }
                  },
                  {
                    "id" : 72,
                    "_type" : "StitchedMedia",
                    "minMediaStart" : 0,
                    "attributes" : {
                      "ident" : "arShakeCounter (online-video-cutter.com)",
                      "gain" : 1.0,
                      "mixToMono" : false,
                      "loudnessNormalization" : true
                    },
                    "parameters" : {
                      "translation0" : {
                        "type" : "double",
                        "defaultValue" : 0.0,
                        "keyframes" : [
                          {
                            "endTime" : 260,
                            "time" : 200,
                            "value" : -725.580558748181,
                            "duration" : 60
                          }
                        ]
                      },
                      "translation1" : {
                        "type" : "double",
                        "defaultValue" : 0.0,
                        "keyframes" : [
                          {
                            "endTime" : 260,
                            "time" : 200,
                            "value" : -2256.56756746474,
                            "duration" : 60
                          }
                        ]
                      },
                      "scale0" : {
                        "type" : "double",
                        "defaultValue" : 1.5,
                        "keyframes" : [
                          {
                            "endTime" : 260,
                            "time" : 200,
                            "value" : 7.05402211654667,
                            "duration" : 60
                          }
                        ]
                      },
                      "scale1" : {
                        "type" : "double",
                        "defaultValue" : 1.5,
                        "keyframes" : [
                          {
                            "endTime" : 260,
                            "time" : 200,
                            "value" : 7.05402333326135,
                            "duration" : 60
                          }
                        ]
                      },
                      "sourceCrop0" : 0.0,
                      "sourceCrop1" : 0.0,
                      "sourceCrop2" : 0.0,
                      "sourceCrop3" : 0.0,
                      "geometryCrop0" : 0.0,
                      "geometryCrop1" : 0.0,
                      "geometryCrop2" : 0.0,
                      "geometryCrop3" : 0.0,
                      "volume" : 1.0,
                      "cursorOpacity" : 1.0,
                      "cursorScale" : 1.0
                    },
                    "medias" : [
                        {
                          "id" : 73,
                          "_type" : "UnifiedMedia",
                          "video" : 
                              {
                                "id" : 74,
                                "_type" : "VMFile",
                                "src" : 5,
                                "trackNumber" : 1,
                                "attributes" : {
                                  "ident" : "arShakeCounter (online-video-cutter.com)"
                                },
                                "parameters" : {
                                  "sourceCrop0" : {
                                    "type" : "double",
                                    "defaultValue" : 0.0,
                                    "interp" : "eioe"
                                  },
                                  "sourceCrop1" : {
                                    "type" : "double",
                                    "defaultValue" : 0.0,
                                    "interp" : "eioe"
                                  },
                                  "sourceCrop2" : {
                                    "type" : "double",
                                    "defaultValue" : 0.0,
                                    "interp" : "eioe"
                                  },
                                  "sourceCrop3" : {
                                    "type" : "double",
                                    "defaultValue" : 0.0,
                                    "interp" : "eioe"
                                  },
                                  "geometryCrop0" : {
                                    "type" : "double",
                                    "defaultValue" : 0.0,
                                    "interp" : "eioe"
                                  },
                                  "geometryCrop1" : {
                                    "type" : "double",
                                    "defaultValue" : 0.0,
                                    "interp" : "eioe"
                                  },
                                  "geometryCrop2" : {
                                    "type" : "double",
                                    "defaultValue" : 0.0,
                                    "interp" : "eioe"
                                  },
                                  "geometryCrop3" : {
                                    "type" : "double",
                                    "defaultValue" : 0.0,
                                    "interp" : "eioe"
                                  }
                                },
                                "effects" : [

                                ],
                                "start" : 0,
                                "duration" : 300,
                                "mediaStart" : 0,
                                "mediaDuration" : 300,
                                "scalar" : 1,
                                "animationTracks" : {

                                }
                              },
                          "audio" : 
                              {
                                "id" : 75,
                                "_type" : "AMFile",
                                "src" : 5,
                                "trackNumber" : 0,
                                "attributes" : {
                                  "ident" : "",
                                  "gain" : 1.0,
                                  "mixToMono" : false,
                                  "loudnessNormalization" : true
                                },
                                  "channelNumber" : "0,1",
                                "effects" : [

                                ],
                                "start" : 0,
                                "duration" : 300,
                                "mediaStart" : 0,
                                "mediaDuration" : 300,
                                "scalar" : 1,
                                "animationTracks" : {

                                }
                              }
,
                          "start" : 0,
                          "duration" : 300,
                          "mediaStart" : 0,
                          "mediaDuration" : 300,
                          "scalar" : 1,
                          "metadata" : {
                            "clipSpeedAttribute" : false,
                            "default-height" : 720.0,
                            "default-scale0" : 1.0,
                            "default-scale1" : 1.0,
                            "default-translation0" : 0.0,
                            "default-translation1" : 0.0,
                            "default-width" : 324.0
                          }
                        },
                        {
                          "id" : 76,
                          "_type" : "IMFile",
                          "src" : 5,
                          "trackNumber" : 1,
                          "trimStartSum" : 0,
                          "attributes" : {
                            "ident" : "arShakeCounter (online-video-cutter.com)"
                          },
                          "parameters" : {
                            "sourceCrop0" : {
                              "type" : "double",
                              "defaultValue" : 0.0,
                              "interp" : "eioe"
                            },
                            "sourceCrop1" : {
                              "type" : "double",
                              "defaultValue" : 0.0,
                              "interp" : "eioe"
                            },
                            "sourceCrop2" : {
                              "type" : "double",
                              "defaultValue" : 0.0,
                              "interp" : "eioe"
                            },
                            "sourceCrop3" : {
                              "type" : "double",
                              "defaultValue" : 0.0,
                              "interp" : "eioe"
                            },
                            "geometryCrop0" : {
                              "type" : "double",
                              "defaultValue" : 0.0,
                              "interp" : "eioe"
                            },
                            "geometryCrop1" : {
                              "type" : "double",
                              "defaultValue" : 0.0,
                              "interp" : "eioe"
                            },
                            "geometryCrop2" : {
                              "type" : "double",
                              "defaultValue" : 0.0,
                              "interp" : "eioe"
                            },
                            "geometryCrop3" : {
                              "type" : "double",
                              "defaultValue" : 0.0,
                              "interp" : "eioe"
                            }
                          },
                          "effects" : [

                          ],
                          "start" : 300,
                          "duration" : 2540160000060,
                          "mediaStart" : 299,
                          "mediaDuration" : 1,
                          "scalar" : 1,
                          "animationTracks" : {

                          }
                        }
                    ],
                    "effects" : [

                    ],
                    "start" : 5678,
                    "duration" : 460,
                    "mediaStart" : 0,
                    "mediaDuration" : 460,
                    "scalar" : 1,
                    "metadata" : {
                      "clipSpeedAttribute" : false,
                      "default-height" : 720.0,
                      "default-scale0" : 1.0,
                      "default-scale1" : 1.0,
                      "default-width" : 324.0
                    },
                    "animationTracks" : {
                      "visual" : [
                        {
                          "endTime" : 260,
                          "duration" : 60,
                          "range" : [ 200, 60]
                        }
                      ]
                    }
                  },
                  {
                    "id" : 77,
                    "_type" : "StitchedMedia",
                    "minMediaStart" : -2.54016e+12,
                    "attributes" : {
                      "ident" : "arFinalResult (online-video-cutter.com)",
                      "gain" : 1.0,
                      "mixToMono" : false,
                      "loudnessNormalization" : true
                    },
                    "parameters" : {
                      "scale0" : 1.5,
                      "scale1" : 1.5,
                      "sourceCrop0" : 0.0,
                      "sourceCrop1" : 0.0,
                      "sourceCrop2" : 0.0,
                      "sourceCrop3" : 0.0,
                      "geometryCrop0" : 0.0,
                      "geometryCrop1" : 0.0,
                      "geometryCrop2" : 0.0,
                      "geometryCrop3" : 0.0,
                      "volume" : 1.0,
                      "cursorOpacity" : 1.0,
                      "cursorScale" : 1.0
                    },
                    "medias" : [
                        {
                          "id" : 78,
                          "_type" : "IMFile",
                          "src" : 32,
                          "trackNumber" : 1,
                          "trimStartSum" : -2540160000000,
                          "attributes" : {
                            "ident" : "arFinalResult (online-video-cutter.com)"
                          },
                          "parameters" : {
                            "sourceCrop0" : {
                              "type" : "double",
                              "defaultValue" : 0.0,
                              "interp" : "eioe"
                            },
                            "sourceCrop1" : {
                              "type" : "double",
                              "defaultValue" : 0.0,
                              "interp" : "eioe"
                            },
                            "sourceCrop2" : {
                              "type" : "double",
                              "defaultValue" : 0.0,
                              "interp" : "eioe"
                            },
                            "sourceCrop3" : {
                              "type" : "double",
                              "defaultValue" : 0.0,
                              "interp" : "eioe"
                            },
                            "geometryCrop0" : {
                              "type" : "double",
                              "defaultValue" : 0.0,
                              "interp" : "eioe"
                            },
                            "geometryCrop1" : {
                              "type" : "double",
                              "defaultValue" : 0.0,
                              "interp" : "eioe"
                            },
                            "geometryCrop2" : {
                              "type" : "double",
                              "defaultValue" : 0.0,
                              "interp" : "eioe"
                            },
                            "geometryCrop3" : {
                              "type" : "double",
                              "defaultValue" : 0.0,
                              "interp" : "eioe"
                            }
                          },
                          "effects" : [

                          ],
                          "start" : -2540160000000,
                          "duration" : 2540160000060,
                          "mediaStart" : 0,
                          "mediaDuration" : 1,
                          "scalar" : 1,
                          "animationTracks" : {

                          }
                        },
                        {
                          "id" : 79,
                          "_type" : "UnifiedMedia",
                          "video" : 
                              {
                                "id" : 80,
                                "_type" : "VMFile",
                                "src" : 32,
                                "trackNumber" : 1,
                                "attributes" : {
                                  "ident" : "arFinalResult (online-video-cutter.com)"
                                },
                                "parameters" : {
                                  "sourceCrop0" : {
                                    "type" : "double",
                                    "defaultValue" : 0.0,
                                    "interp" : "eioe"
                                  },
                                  "sourceCrop1" : {
                                    "type" : "double",
                                    "defaultValue" : 0.0,
                                    "interp" : "eioe"
                                  },
                                  "sourceCrop2" : {
                                    "type" : "double",
                                    "defaultValue" : 0.0,
                                    "interp" : "eioe"
                                  },
                                  "sourceCrop3" : {
                                    "type" : "double",
                                    "defaultValue" : 0.0,
                                    "interp" : "eioe"
                                  },
                                  "geometryCrop0" : {
                                    "type" : "double",
                                    "defaultValue" : 0.0,
                                    "interp" : "eioe"
                                  },
                                  "geometryCrop1" : {
                                    "type" : "double",
                                    "defaultValue" : 0.0,
                                    "interp" : "eioe"
                                  },
                                  "geometryCrop2" : {
                                    "type" : "double",
                                    "defaultValue" : 0.0,
                                    "interp" : "eioe"
                                  },
                                  "geometryCrop3" : {
                                    "type" : "double",
                                    "defaultValue" : 0.0,
                                    "interp" : "eioe"
                                  }
                                },
                                "effects" : [

                                ],
                                "start" : 60,
                                "duration" : 1135,
                                "mediaStart" : 0,
                                "mediaDuration" : 1135,
                                "scalar" : 1,
                                "animationTracks" : {

                                }
                              },
                          "audio" : 
                              {
                                "id" : 81,
                                "_type" : "AMFile",
                                "src" : 32,
                                "trackNumber" : 0,
                                "attributes" : {
                                  "ident" : "",
                                  "gain" : 1.0,
                                  "mixToMono" : false,
                                  "loudnessNormalization" : true
                                },
                                  "channelNumber" : "0,1",
                                "effects" : [

                                ],
                                "start" : 60,
                                "duration" : 1135,
                                "mediaStart" : 0,
                                "mediaDuration" : 1135,
                                "scalar" : 1,
                                "animationTracks" : {

                                }
                              }
,
                          "start" : 60,
                          "duration" : 1135,
                          "mediaStart" : 0,
                          "mediaDuration" : 1135,
                          "scalar" : 1,
                          "metadata" : {
                            "clipSpeedAttribute" : false,
                            "default-height" : 720.0,
                            "default-scale0" : 1.0,
                            "default-scale1" : 1.0,
                            "default-width" : 324.0
                          }
                        }
                    ],
                    "effects" : [

                    ],
                    "start" : 6139,
                    "duration" : 69,
                    "mediaStart" : 0,
                    "mediaDuration" : 69,
                    "scalar" : 1,
                    "metadata" : {
                      "clipSpeedAttribute" : false
                    },
                    "animationTracks" : {

                    }
                  },
                  {
                    "id" : 82,
                    "_type" : "UnifiedMedia",
                    "video" : 
                        {
                          "id" : 83,
                          "_type" : "VMFile",
                          "src" : 32,
                          "trackNumber" : 1,
                          "attributes" : {
                            "ident" : "arFinalResult (online-video-cutter.com)"
                          },
                          "parameters" : {
                            "scale0" : {
                              "type" : "double",
                              "defaultValue" : 1.5,
                              "interp" : "eioe"
                            },
                            "scale1" : {
                              "type" : "double",
                              "defaultValue" : 1.5,
                              "interp" : "eioe"
                            },
                            "sourceCrop0" : {
                              "type" : "double",
                              "defaultValue" : 0.0,
                              "interp" : "eioe"
                            },
                            "sourceCrop1" : {
                              "type" : "double",
                              "defaultValue" : 0.0,
                              "interp" : "eioe"
                            },
                            "sourceCrop2" : {
                              "type" : "double",
                              "defaultValue" : 0.0,
                              "interp" : "eioe"
                            },
                            "sourceCrop3" : {
                              "type" : "double",
                              "defaultValue" : 0.0,
                              "interp" : "eioe"
                            },
                            "geometryCrop0" : {
                              "type" : "double",
                              "defaultValue" : 0.0,
                              "interp" : "eioe"
                            },
                            "geometryCrop1" : {
                              "type" : "double",
                              "defaultValue" : 0.0,
                              "interp" : "eioe"
                            },
                            "geometryCrop2" : {
                              "type" : "double",
                              "defaultValue" : 0.0,
                              "interp" : "eioe"
                            },
                            "geometryCrop3" : {
                              "type" : "double",
                              "defaultValue" : 0.0,
                              "interp" : "eioe"
                            }
                          },
                          "effects" : [

                          ],
                          "start" : 6208,
                          "duration" : 1135,
                          "mediaStart" : 0,
                          "mediaDuration" : 1135,
                          "scalar" : 1,
                          "animationTracks" : {

                          }
                        },
                    "audio" : 
                        {
                          "id" : 84,
                          "_type" : "AMFile",
                          "src" : 32,
                          "trackNumber" : 0,
                          "attributes" : {
                            "ident" : "",
                            "gain" : 1.0,
                            "mixToMono" : false,
                            "loudnessNormalization" : true
                          },
                            "channelNumber" : "0,1",
                          "effects" : [

                          ],
                          "start" : 6208,
                          "duration" : 1135,
                          "mediaStart" : 0,
                          "mediaDuration" : 1135,
                          "scalar" : 1,
                          "animationTracks" : {

                          }
                        }
,
                    "start" : 6208,
                    "duration" : 1135,
                    "mediaStart" : 0,
                    "mediaDuration" : 1135,
                    "scalar" : 1,
                    "metadata" : {
                      "clipSpeedAttribute" : false,
                      "default-height" : 720.0,
                      "default-scale0" : 1.0,
                      "default-scale1" : 1.0,
                      "default-width" : 324.0
                    }
                  },
                  {
                    "id" : 85,
                    "_type" : "Callout",
                    "def" : {
                      "kind" : "remix",
                      "shape" : "text",
                      "style" : "basic",
                      "enable-ligatures" : 1.0,
                      "height" : 250.0,
                      "line-spacing" : 0.0,
                      "width" : 400.0,
                      "word-wrap" : 1.0,
                      "horizontal-alignment" : "center",
                      "resize-behavior" : "resizeText",
                      "text" : "Why?",
                      "vertical-alignment" : "center",
                      "font" : {
                        "color-blue" : 1.0,
                        "color-green" : 1.0,
                        "color-red" : 1.0,
                        "size" : 96.0,
                        "tracking" : 0.0,
                        "name" : "Montserrat",
                        "weight" : "Regular"
                      },
                      "textAttributes" : {
                        "type" : "textAttributeList",
                        "keyframes" : [
                          {
                            "endTime" : 0,
                            "time" : 0,
                            "value" : [{"name":"fontName","rangeEnd":4,"rangeStart":0,"value":"Montserrat","valueType":"string"},{"name":"strikethrough","rangeEnd":4,"rangeStart":0,"value":0,"valueType":"int"},{"name":"fontItalic","rangeEnd":4,"rangeStart":0,"value":0,"valueType":"int"},{"name":"fontSize","rangeEnd":4,"rangeStart":0,"value":96,"valueType":"double"},{"name":"fontWeight","rangeEnd":4,"rangeStart":0,"value":400,"valueType":"int"},{"name":"fgColor","rangeEnd":4,"rangeStart":0,"value":"(255,255,255,255)","valueType":"color"},{"name":"underline","rangeEnd":4,"rangeStart":0,"value":0,"valueType":"int"},{"name":"kerning","rangeEnd":4,"rangeStart":0,"value":0,"valueType":"double"}],
                            "duration" : 0
                          }
                        ]
                      }
                    },
                    "attributes" : {
                      "ident" : "",
                      "autoRotateText" : true
                    },
                    "parameters" : {
                      "translation0" : -24.5283018867923,
                      "translation1" : 41.9811320754717,
                      "sourceCrop0" : 0.0,
                      "sourceCrop1" : 0.0,
                      "sourceCrop2" : 0.0,
                      "sourceCrop3" : 0.0,
                      "geometryCrop0" : 0.0,
                      "geometryCrop1" : 0.0,
                      "geometryCrop2" : 0.0,
                      "geometryCrop3" : 0.0
                    },
                    "effects" : [

                    ],
                    "start" : 7343,
                    "duration" : 420,
                    "mediaStart" : 0,
                    "mediaDuration" : 420,
                    "scalar" : 1,
                    "metadata" : {
                      "clipSpeedAttribute" : false,
                      "default-HAlign" : "center",
                      "default-LineSpace" : 0.0,
                      "default-VAlign" : "center",
                      "default-height" : 250.0,
                      "default-text-attributes" : null,
                      "default-translation0" : 0.0,
                      "default-translation1" : 0.0,
                      "default-width" : 400.0
                    },
                    "animationTracks" : {

                    }
                  },
                  {
                    "id" : 86,
                    "_type" : "UnifiedMedia",
                    "video" : 
                        {
                          "id" : 87,
                          "_type" : "VMFile",
                          "src" : 12,
                          "trackNumber" : 1,
                          "attributes" : {
                            "ident" : "Mary Psych Handshake (online-video-cutter.com)"
                          },
                          "parameters" : {
                            "scale0" : {
                              "type" : "double",
                              "defaultValue" : 1.5,
                              "interp" : "eioe"
                            },
                            "scale1" : {
                              "type" : "double",
                              "defaultValue" : 1.5,
                              "interp" : "eioe"
                            },
                            "sourceCrop0" : {
                              "type" : "double",
                              "defaultValue" : 0.0,
                              "interp" : "eioe"
                            },
                            "sourceCrop1" : {
                              "type" : "double",
                              "defaultValue" : 0.0,
                              "interp" : "eioe"
                            },
                            "sourceCrop2" : {
                              "type" : "double",
                              "defaultValue" : 0.0,
                              "interp" : "eioe"
                            },
                            "sourceCrop3" : {
                              "type" : "double",
                              "defaultValue" : 0.0,
                              "interp" : "eioe"
                            },
                            "geometryCrop0" : {
                              "type" : "double",
                              "defaultValue" : 0.0,
                              "interp" : "eioe"
                            },
                            "geometryCrop1" : {
                              "type" : "double",
                              "defaultValue" : 0.0,
                              "interp" : "eioe"
                            },
                            "geometryCrop2" : {
                              "type" : "double",
                              "defaultValue" : 0.0,
                              "interp" : "eioe"
                            },
                            "geometryCrop3" : {
                              "type" : "double",
                              "defaultValue" : 0.0,
                              "interp" : "eioe"
                            }
                          },
                          "effects" : [

                          ],
                          "start" : 7763,
                          "duration" : 604,
                          "mediaStart" : 0,
                          "mediaDuration" : 604,
                          "scalar" : 1,
                          "animationTracks" : {

                          }
                        },
                    "audio" : 
                        {
                          "id" : 88,
                          "_type" : "AMFile",
                          "src" : 12,
                          "trackNumber" : 0,
                          "attributes" : {
                            "ident" : "",
                            "gain" : 1.0,
                            "mixToMono" : false,
                            "loudnessNormalization" : true
                          },
                            "channelNumber" : "0,1",
                          "parameters" : {
                            "volume" : {
                              "type" : "double",
                              "keyframes" : [
                                {
                                  "endTime" : -1,
                                  "time" : -1,
                                  "value" : 1.0,
                                  "duration" : 0
                                },
                                {
                                  "endTime" : 0,
                                  "time" : 0,
                                  "value" : 0.0,
                                  "duration" : 0
                                },
                                {
                                  "endTime" : 604,
                                  "time" : 604,
                                  "value" : 0.0,
                                  "duration" : 0
                                },
                                {
                                  "endTime" : 605,
                                  "time" : 605,
                                  "value" : 1.0,
                                  "duration" : 0
                                }
                              ]
                            }
                          },
                          "effects" : [

                          ],
                          "start" : 7763,
                          "duration" : 604,
                          "mediaStart" : 0,
                          "mediaDuration" : 604,
                          "scalar" : 1,
                          "animationTracks" : {

                          }
                        }
,
                    "start" : 7763,
                    "duration" : 604,
                    "mediaStart" : 0,
                    "mediaDuration" : 604,
                    "scalar" : 1,
                    "metadata" : {
                      "clipSpeedAttribute" : false,
                      "default-height" : 720.0,
                      "default-scale0" : 1.0,
                      "default-scale1" : 1.0,
                      "default-width" : 1280.0
                    }
                  },
                  {
                    "id" : 89,
                    "_type" : "StitchedMedia",
                    "minMediaStart" : 0,
                    "attributes" : {
                      "ident" : "Resident Alien _ Intro Theme Song _ Opening Credits",
                      "gain" : 1.0,
                      "mixToMono" : false,
                      "loudnessNormalization" : true
                    },
                    "parameters" : {
                      "scale0" : 1.5,
                      "scale1" : 1.5,
                      "sourceCrop0" : 0.0,
                      "sourceCrop1" : 0.0,
                      "sourceCrop2" : 0.0,
                      "sourceCrop3" : 0.0,
                      "geometryCrop0" : 0.0,
                      "geometryCrop1" : 0.0,
                      "geometryCrop2" : 0.0,
                      "geometryCrop3" : 0.0,
                      "volume" : {
                        "type" : "double",
                        "keyframes" : [
                          {
                            "endTime" : 0,
                            "time" : 0,
                            "value" : 1.0,
                            "duration" : 0
                          },
                          {
                            "endTime" : 353,
                            "time" : 353,
                            "value" : 1.0,
                            "duration" : 0
                          },
                          {
                            "endTime" : 354,
                            "time" : 354,
                            "value" : 0.0,
                            "duration" : 0
                          },
                          {
                            "endTime" : "319155155/441626",
                            "time" : "319155155/441626",
                            "value" : 0.0,
                            "duration" : 0
                          },
                          {
                            "endTime" : "7122931794/8170081",
                            "time" : "7122931794/8170081",
                            "value" : 0.0,
                            "duration" : 0
                          },
                          {
                            "endTime" : "2819333586117102/2540919701243",
                            "time" : "2819333586117102/2540919701243",
                            "value" : 0.0,
                            "duration" : 0
                          },
                          {
                            "endTime" : "2821874505818345/2540919701243",
                            "time" : "2821874505818345/2540919701243",
                            "value" : 1.0,
                            "duration" : 0
                          }
                        ]
                      },
                      "cursorOpacity" : 1.0,
                      "cursorScale" : 1.0
                    },
                    "medias" : [
                        {
                          "id" : 90,
                          "_type" : "UnifiedMedia",
                          "video" : 
                              {
                                "id" : 91,
                                "_type" : "VMFile",
                                "src" : 13,
                                "trackNumber" : 0,
                                "attributes" : {
                                  "ident" : "Resident Alien _ Intro Theme Song _ Opening Credits"
                                },
                                "parameters" : {
                                  "sourceCrop0" : {
                                    "type" : "double",
                                    "defaultValue" : 0.0,
                                    "interp" : "eioe"
                                  },
                                  "sourceCrop1" : {
                                    "type" : "double",
                                    "defaultValue" : 0.0,
                                    "interp" : "eioe"
                                  },
                                  "sourceCrop2" : {
                                    "type" : "double",
                                    "defaultValue" : 0.0,
                                    "interp" : "eioe"
                                  },
                                  "sourceCrop3" : {
                                    "type" : "double",
                                    "defaultValue" : 0.0,
                                    "interp" : "eioe"
                                  },
                                  "geometryCrop0" : {
                                    "type" : "double",
                                    "defaultValue" : 0.0,
                                    "interp" : "eioe"
                                  },
                                  "geometryCrop1" : {
                                    "type" : "double",
                                    "defaultValue" : 0.0,
                                    "interp" : "eioe"
                                  },
                                  "geometryCrop2" : {
                                    "type" : "double",
                                    "defaultValue" : 0.0,
                                    "interp" : "eioe"
                                  },
                                  "geometryCrop3" : {
                                    "type" : "double",
                                    "defaultValue" : 0.0,
                                    "interp" : "eioe"
                                  }
                                },
                                "effects" : [

                                ],
                                "start" : 0,
                                "duration" : 723,
                                "mediaStart" : 0,
                                "mediaDuration" : 723,
                                "scalar" : 1,
                                "animationTracks" : {

                                }
                              },
                          "audio" : 
                              {
                                "id" : 92,
                                "_type" : "AMFile",
                                "src" : 13,
                                "trackNumber" : 1,
                                "attributes" : {
                                  "ident" : "",
                                  "gain" : 1.0,
                                  "mixToMono" : false,
                                  "loudnessNormalization" : true
                                },
                                  "channelNumber" : "0,1",
                                "effects" : [

                                ],
                                "start" : 0,
                                "duration" : 723,
                                "mediaStart" : 0,
                                "mediaDuration" : 723,
                                "scalar" : 1,
                                "animationTracks" : {

                                }
                              }
,
                          "start" : 0,
                          "duration" : 723,
                          "mediaStart" : 0,
                          "mediaDuration" : 1692,
                          "scalar" : 1,
                          "metadata" : {
                            "clipSpeedAttribute" : true
                          }
                        },
                        {
                          "id" : 93,
                          "_type" : "IMFile",
                          "src" : 13,
                          "trackNumber" : 0,
                          "trimStartSum" : 0,
                          "attributes" : {
                            "ident" : "Resident Alien _ Intro Theme Song _ Opening Credits"
                          },
                          "parameters" : {
                            "sourceCrop0" : {
                              "type" : "double",
                              "defaultValue" : 0.0,
                              "interp" : "eioe"
                            },
                            "sourceCrop1" : {
                              "type" : "double",
                              "defaultValue" : 0.0,
                              "interp" : "eioe"
                            },
                            "sourceCrop2" : {
                              "type" : "double",
                              "defaultValue" : 0.0,
                              "interp" : "eioe"
                            },
                            "sourceCrop3" : {
                              "type" : "double",
                              "defaultValue" : 0.0,
                              "interp" : "eioe"
                            },
                            "geometryCrop0" : {
                              "type" : "double",
                              "defaultValue" : 0.0,
                              "interp" : "eioe"
                            },
                            "geometryCrop1" : {
                              "type" : "double",
                              "defaultValue" : 0.0,
                              "interp" : "eioe"
                            },
                            "geometryCrop2" : {
                              "type" : "double",
                              "defaultValue" : 0.0,
                              "interp" : "eioe"
                            },
                            "geometryCrop3" : {
                              "type" : "double",
                              "defaultValue" : 0.0,
                              "interp" : "eioe"
                            }
                          },
                          "effects" : [

                          ],
                          "start" : 723,
                          "duration" : 134,
                          "mediaStart" : 722,
                          "mediaDuration" : 1,
                          "scalar" : 1,
                          "animationTracks" : {

                          }
                        },
                        {
                          "id" : 94,
                          "_type" : "UnifiedMedia",
                          "video" : 
                              {
                                "id" : 95,
                                "_type" : "VMFile",
                                "src" : 13,
                                "trackNumber" : 0,
                                "attributes" : {
                                  "ident" : "Resident Alien _ Intro Theme Song _ Opening Credits"
                                },
                                "parameters" : {
                                  "sourceCrop0" : {
                                    "type" : "double",
                                    "defaultValue" : 0.0,
                                    "interp" : "eioe"
                                  },
                                  "sourceCrop1" : {
                                    "type" : "double",
                                    "defaultValue" : 0.0,
                                    "interp" : "eioe"
                                  },
                                  "sourceCrop2" : {
                                    "type" : "double",
                                    "defaultValue" : 0.0,
                                    "interp" : "eioe"
                                  },
                                  "sourceCrop3" : {
                                    "type" : "double",
                                    "defaultValue" : 0.0,
                                    "interp" : "eioe"
                                  },
                                  "geometryCrop0" : {
                                    "type" : "double",
                                    "defaultValue" : 0.0,
                                    "interp" : "eioe"
                                  },
                                  "geometryCrop1" : {
                                    "type" : "double",
                                    "defaultValue" : 0.0,
                                    "interp" : "eioe"
                                  },
                                  "geometryCrop2" : {
                                    "type" : "double",
                                    "defaultValue" : 0.0,
                                    "interp" : "eioe"
                                  },
                                  "geometryCrop3" : {
                                    "type" : "double",
                                    "defaultValue" : 0.0,
                                    "interp" : "eioe"
                                  }
                                },
                                "effects" : [

                                ],
                                "start" : 857,
                                "duration" : 17,
                                "mediaStart" : 721,
                                "mediaDuration" : 17,
                                "scalar" : 1,
                                "animationTracks" : {

                                }
                              },
                          "audio" : 
                              {
                                "id" : 96,
                                "_type" : "AMFile",
                                "src" : 13,
                                "trackNumber" : 1,
                                "attributes" : {
                                  "ident" : "",
                                  "gain" : 1.0,
                                  "mixToMono" : false,
                                  "loudnessNormalization" : true
                                },
                                  "channelNumber" : "0,1",
                                "effects" : [

                                ],
                                "start" : 857,
                                "duration" : 17,
                                "mediaStart" : 721,
                                "mediaDuration" : 17,
                                "scalar" : 1,
                                "animationTracks" : {

                                }
                              }
,
                          "start" : 857,
                          "duration" : 17,
                          "mediaStart" : 0,
                          "mediaDuration" : 1692,
                          "scalar" : 1,
                          "metadata" : {
                            "clipSpeedAttribute" : true
                          }
                        },
                        {
                          "id" : 97,
                          "_type" : "IMFile",
                          "src" : 13,
                          "trackNumber" : 0,
                          "trimStartSum" : 0,
                          "attributes" : {
                            "ident" : "Resident Alien _ Intro Theme Song _ Opening Credits"
                          },
                          "parameters" : {
                            "sourceCrop0" : {
                              "type" : "double",
                              "defaultValue" : 0.0,
                              "interp" : "eioe"
                            },
                            "sourceCrop1" : {
                              "type" : "double",
                              "defaultValue" : 0.0,
                              "interp" : "eioe"
                            },
                            "sourceCrop2" : {
                              "type" : "double",
                              "defaultValue" : 0.0,
                              "interp" : "eioe"
                            },
                            "sourceCrop3" : {
                              "type" : "double",
                              "defaultValue" : 0.0,
                              "interp" : "eioe"
                            },
                            "geometryCrop0" : {
                              "type" : "double",
                              "defaultValue" : 0.0,
                              "interp" : "eioe"
                            },
                            "geometryCrop1" : {
                              "type" : "double",
                              "defaultValue" : 0.0,
                              "interp" : "eioe"
                            },
                            "geometryCrop2" : {
                              "type" : "double",
                              "defaultValue" : 0.0,
                              "interp" : "eioe"
                            },
                            "geometryCrop3" : {
                              "type" : "double",
                              "defaultValue" : 0.0,
                              "interp" : "eioe"
                            }
                          },
                          "effects" : [

                          ],
                          "start" : 874,
                          "duration" : 223,
                          "mediaStart" : 737,
                          "mediaDuration" : 1,
                          "scalar" : 1,
                          "animationTracks" : {

                          }
                        },
                        {
                          "id" : 98,
                          "_type" : "UnifiedMedia",
                          "video" : 
                              {
                                "id" : 99,
                                "_type" : "VMFile",
                                "src" : 13,
                                "trackNumber" : 0,
                                "attributes" : {
                                  "ident" : "Resident Alien _ Intro Theme Song _ Opening Credits"
                                },
                                "parameters" : {
                                  "sourceCrop0" : {
                                    "type" : "double",
                                    "defaultValue" : 0.0,
                                    "interp" : "eioe"
                                  },
                                  "sourceCrop1" : {
                                    "type" : "double",
                                    "defaultValue" : 0.0,
                                    "interp" : "eioe"
                                  },
                                  "sourceCrop2" : {
                                    "type" : "double",
                                    "defaultValue" : 0.0,
                                    "interp" : "eioe"
                                  },
                                  "sourceCrop3" : {
                                    "type" : "double",
                                    "defaultValue" : 0.0,
                                    "interp" : "eioe"
                                  },
                                  "geometryCrop0" : {
                                    "type" : "double",
                                    "defaultValue" : 0.0,
                                    "interp" : "eioe"
                                  },
                                  "geometryCrop1" : {
                                    "type" : "double",
                                    "defaultValue" : 0.0,
                                    "interp" : "eioe"
                                  },
                                  "geometryCrop2" : {
                                    "type" : "double",
                                    "defaultValue" : 0.0,
                                    "interp" : "eioe"
                                  },
                                  "geometryCrop3" : {
                                    "type" : "double",
                                    "defaultValue" : 0.0,
                                    "interp" : "eioe"
                                  }
                                },
                                "effects" : [

                                ],
                                "start" : 1097,
                                "duration" : 954,
                                "mediaStart" : 738,
                                "mediaDuration" : 954,
                                "scalar" : 1,
                                "animationTracks" : {

                                }
                              },
                          "audio" : 
                              {
                                "id" : 100,
                                "_type" : "AMFile",
                                "src" : 13,
                                "trackNumber" : 1,
                                "attributes" : {
                                  "ident" : "",
                                  "gain" : 1.0,
                                  "mixToMono" : false,
                                  "loudnessNormalization" : true
                                },
                                  "channelNumber" : "0,1",
                                "effects" : [

                                ],
                                "start" : 1097,
                                "duration" : 954,
                                "mediaStart" : 738,
                                "mediaDuration" : 954,
                                "scalar" : 1,
                                "animationTracks" : {

                                }
                              }
,
                          "start" : 1097,
                          "duration" : 954,
                          "mediaStart" : 0,
                          "mediaDuration" : 1692,
                          "scalar" : 1,
                          "metadata" : {
                            "clipSpeedAttribute" : true
                          }
                        }
                    ],
                    "effects" : [

                    ],
                    "start" : 8367,
                    "duration" : 1018,
                    "mediaStart" : "365859/1031",
                    "mediaDuration" : "781644/1031",
                    "scalar" : "524779/390822",
                    "metadata" : {
                      "clipSpeedAttribute" : true,
                      "default-height" : 720.0,
                      "default-scale0" : 1.0,
                      "default-scale1" : 1.0,
                      "default-width" : 1280.0
                    },
                    "animationTracks" : {

                    }
                  },
                  {
                    "id" : 101,
                    "_type" : "Callout",
                    "def" : {
                      "kind" : "remix",
                      "shape" : "text",
                      "style" : "basic",
                      "enable-ligatures" : 1.0,
                      "height" : 950.0,
                      "line-spacing" : 0.0,
                      "width" : 1133.96226415094,
                      "word-wrap" : 1.0,
                      "horizontal-alignment" : "center",
                      "resize-behavior" : "resizeText",
                      "text" : "Credits:\r- Dylan Andersen\r- Davian Flores\r\rNo Animals were harmed in the making of this film ",
                      "vertical-alignment" : "center",
                      "font" : {
                        "color-blue" : 1.0,
                        "color-green" : 1.0,
                        "color-red" : 1.0,
                        "size" : 96.0,
                        "tracking" : 0.0,
                        "name" : "Montserrat",
                        "weight" : "Regular"
                      },
                      "textAttributes" : {
                        "type" : "textAttributeList",
                        "keyframes" : [
                          {
                            "endTime" : 0,
                            "time" : 0,
                            "value" : [{"name":"underline","rangeEnd":93,"rangeStart":0,"value":0,"valueType":"int"},{"name":"fontName","rangeEnd":93,"rangeStart":0,"value":"Montserrat","valueType":"string"},{"name":"fontSize","rangeEnd":93,"rangeStart":0,"value":96,"valueType":"double"},{"name":"strikethrough","rangeEnd":93,"rangeStart":0,"value":0,"valueType":"int"},{"name":"fontItalic","rangeEnd":93,"rangeStart":0,"value":0,"valueType":"int"},{"name":"kerning","rangeEnd":93,"rangeStart":0,"value":0,"valueType":"double"},{"name":"fgColor","rangeEnd":93,"rangeStart":0,"value":"(255,255,255,255)","valueType":"color"},{"name":"fontWeight","rangeEnd":93,"rangeStart":0,"value":400,"valueType":"int"}],
                            "duration" : 0
                          }
                        ]
                      }
                    },
                    "attributes" : {
                      "ident" : "",
                      "autoRotateText" : true
                    },
                    "parameters" : {
                      "translation0" : -46.2075471698111,
                      "translation1" : 9.59232693276135e-14,
                      "sourceCrop0" : 0.0,
                      "sourceCrop1" : 0.0,
                      "sourceCrop2" : 0.0,
                      "sourceCrop3" : 0.0,
                      "geometryCrop0" : 0.0,
                      "geometryCrop1" : 0.0,
                      "geometryCrop2" : 0.0,
                      "geometryCrop3" : 0.0
                    },
                    "effects" : [

                    ],
                    "start" : 9385,
                    "duration" : 300,
                    "mediaStart" : 0,
                    "mediaDuration" : 300,
                    "scalar" : 1,
                    "metadata" : {
                      "clipSpeedAttribute" : false,
                      "default-HAlign" : "center",
                      "default-LineSpace" : 0.0,
                      "default-VAlign" : "center",
                      "default-height" : 250.0,
                      "default-text-attributes" : null,
                      "default-translation0" : 0.0,
                      "default-translation1" : 0.0,
                      "default-width" : 400.0
                    },
                    "animationTracks" : {

                    }
                  }
                ],
                "transitions" : [
                  {
                    "name" : "BarWipe",
                    "duration" : 60,
                    "rightMedia" : 45,
                    "attributes" : {
                      "bypass" : false,
                      "reverse" : false,
                      "trivial" : false,
                      "useAudioPreRoll" : true,
                      "useVisualPreRoll" : true
                    }

                  },
                  {
                    "name" : "BarWipe",
                    "duration" : 60,
                    "rightMedia" : 48,
                    "attributes" : {
                      "bypass" : false,
                      "reverse" : false,
                      "trivial" : false,
                      "useAudioPreRoll" : true,
                      "useVisualPreRoll" : true
                    }

                  },
                  {
                    "name" : "BarWipe",
                    "duration" : 60,
                    "rightMedia" : 51,
                    "attributes" : {
                      "bypass" : false,
                      "reverse" : false,
                      "trivial" : false,
                      "useAudioPreRoll" : true,
                      "useVisualPreRoll" : true
                    }

                  },
                  {
                    "name" : "BarWipe",
                    "duration" : 60,
                    "rightMedia" : 54,
                    "attributes" : {
                      "bypass" : false,
                      "reverse" : false,
                      "trivial" : false,
                      "useAudioPreRoll" : true,
                      "useVisualPreRoll" : true
                    }

                  },
                  {
                    "name" : "BarWipe",
                    "duration" : 60,
                    "rightMedia" : 57,
                    "attributes" : {
                      "bypass" : false,
                      "reverse" : false,
                      "trivial" : false,
                      "useAudioPreRoll" : true,
                      "useVisualPreRoll" : true
                    }

                  },
                  {
                    "name" : "BarWipe",
                    "duration" : 60,
                    "rightMedia" : 60,
                    "attributes" : {
                      "bypass" : false,
                      "reverse" : false,
                      "trivial" : false,
                      "useAudioPreRoll" : true,
                      "useVisualPreRoll" : true
                    }

                  },
                  {
                    "name" : "BarWipe",
                    "duration" : 60,
                    "rightMedia" : 63,
                    "attributes" : {
                      "bypass" : false,
                      "reverse" : false,
                      "trivial" : false,
                      "useAudioPreRoll" : true,
                      "useVisualPreRoll" : true
                    }

                  },
                  {
                    "name" : "BarWipe",
                    "duration" : 60,
                    "rightMedia" : 66,
                    "attributes" : {
                      "bypass" : false,
                      "reverse" : false,
                      "trivial" : false,
                      "useAudioPreRoll" : true,
                      "useVisualPreRoll" : true
                    }

                  },
                  {
                    "name" : "BarWipe",
                    "duration" : 60,
                    "rightMedia" : 69,
                    "attributes" : {
                      "bypass" : false,
                      "reverse" : false,
                      "trivial" : false,
                      "useAudioPreRoll" : true,
                      "useVisualPreRoll" : true
                    }

                  },
                  {
                    "name" : "BarWipe",
                    "duration" : 60,
                    "rightMedia" : 72,
                    "attributes" : {
                      "bypass" : false,
                      "reverse" : false,
                      "trivial" : false,
                      "useAudioPreRoll" : true,
                      "useVisualPreRoll" : true
                    }

                  },
                  {
                    "name" : "BarWipe",
                    "duration" : 60,
                    "rightMedia" : 86,
                    "attributes" : {
                      "bypass" : false,
                      "reverse" : false,
                      "trivial" : false,
                      "useAudioPreRoll" : true,
                      "useVisualPreRoll" : true
                    }

                  },
                  {
                    "name" : "BarWipe",
                    "duration" : 60,
                    "rightMedia" : 89,
                    "attributes" : {
                      "bypass" : false,
                      "reverse" : false,
                      "trivial" : false,
                      "useAudioPreRoll" : true,
                      "useVisualPreRoll" : true
                    }

                  }
                ]
              },
              {
                "trackIndex" : 1,
                "medias" : [
                  {
                    "id" : 102,
                    "_type" : "AMFile",
                    "src" : 37,
                    "trackNumber" : 0,
                    "attributes" : {
                      "ident" : "Narration_Hackathon-AR-Dec-2021 18",
                      "gain" : 1.0,
                      "mixToMono" : false,
                      "loudnessNormalization" : true
                    },
                      "channelNumber" : "0,1",
                    "effects" : [

                    ],
                    "start" : 0,
                    "duration" : 798,
                    "mediaStart" : 0,
                    "mediaDuration" : 798,
                    "scalar" : 1,
                    "metadata" : {
                      "clipSpeedAttribute" : false
                    },
                    "animationTracks" : {

                    }
                  },
                  {
                    "id" : 103,
                    "_type" : "AMFile",
                    "src" : 38,
                    "trackNumber" : 1,
                    "attributes" : {
                      "ident" : "yt1s.com - Law and Order Voice Intro DUN DUN HD Lyrics.mp4 (1)",
                      "gain" : 1.0,
                      "mixToMono" : false,
                      "loudnessNormalization" : true
                    },
                      "channelNumber" : "0,1",
                    "effects" : [

                    ],
                    "start" : 816,
                    "duration" : 200,
                    "mediaStart" : 694,
                    "mediaDuration" : 200,
                    "scalar" : 1,
                    "metadata" : {
                      "clipSpeedAttribute" : false
                    },
                    "animationTracks" : {

                    }
                  },
                  {
                    "id" : 104,
                    "_type" : "AMFile",
                    "src" : 17,
                    "trackNumber" : 0,
                    "attributes" : {
                      "ident" : "Narration_Hackathon-AR-Dec-2021 1",
                      "gain" : 1.0,
                      "mixToMono" : false,
                      "loudnessNormalization" : true
                    },
                      "channelNumber" : "0,1",
                    "effects" : [

                    ],
                    "start" : 1016,
                    "duration" : 466,
                    "mediaStart" : 0,
                    "mediaDuration" : 466,
                    "scalar" : 1,
                    "metadata" : {
                      "clipSpeedAttribute" : false
                    },
                    "animationTracks" : {

                    }
                  },
                  {
                    "id" : 105,
                    "_type" : "UnifiedMedia",
                    "video" : 
                        {
                          "id" : 106,
                          "_type" : "VMFile",
                          "src" : 10,
                          "trackNumber" : 1,
                          "attributes" : {
                            "ident" : "arCube (online-video-cutter.com)"
                          },
                          "parameters" : {
                            "translation0" : {
                              "type" : "double",
                              "defaultValue" : -298.125,
                              "interp" : "eioe"
                            },
                            "scale0" : {
                              "type" : "double",
                              "defaultValue" : 1.5,
                              "interp" : "eioe"
                            },
                            "scale1" : {
                              "type" : "double",
                              "defaultValue" : 1.5,
                              "interp" : "eioe"
                            },
                            "sourceCrop0" : {
                              "type" : "double",
                              "defaultValue" : 0.0,
                              "interp" : "eioe"
                            },
                            "sourceCrop1" : {
                              "type" : "double",
                              "defaultValue" : 0.0,
                              "interp" : "eioe"
                            },
                            "sourceCrop2" : {
                              "type" : "double",
                              "defaultValue" : 0.0,
                              "interp" : "eioe"
                            },
                            "sourceCrop3" : {
                              "type" : "double",
                              "defaultValue" : 0.0,
                              "interp" : "eioe"
                            },
                            "geometryCrop0" : {
                              "type" : "double",
                              "defaultValue" : 0.0,
                              "interp" : "eioe"
                            },
                            "geometryCrop1" : {
                              "type" : "double",
                              "defaultValue" : 0.0,
                              "interp" : "eioe"
                            },
                            "geometryCrop2" : {
                              "type" : "double",
                              "defaultValue" : 0.0,
                              "interp" : "eioe"
                            },
                            "geometryCrop3" : {
                              "type" : "double",
                              "defaultValue" : 0.0,
                              "interp" : "eioe"
                            }
                          },
                          "effects" : [

                          ],
                          "start" : 1517,
                          "duration" : 423,
                          "mediaStart" : 25,
                          "mediaDuration" : 423,
                          "scalar" : 1,
                          "animationTracks" : {

                          }
                        },
                    "audio" : 
                        {
                          "id" : 107,
                          "_type" : "AMFile",
                          "src" : 10,
                          "trackNumber" : 0,
                          "attributes" : {
                            "ident" : "",
                            "gain" : 1.0,
                            "mixToMono" : false,
                            "loudnessNormalization" : true
                          },
                            "channelNumber" : "0,1",
                          "effects" : [

                          ],
                          "start" : 1517,
                          "duration" : 423,
                          "mediaStart" : 25,
                          "mediaDuration" : 423,
                          "scalar" : 1,
                          "animationTracks" : {

                          }
                        }
,
                    "start" : 1517,
                    "duration" : 423,
                    "mediaStart" : 0,
                    "mediaDuration" : 448,
                    "scalar" : 1,
                    "metadata" : {
                      "clipSpeedAttribute" : false,
                      "default-height" : 720.0,
                      "default-scale0" : 1.0,
                      "default-scale1" : 1.0,
                      "default-translation0" : 0.0,
                      "default-width" : 324.0
                    }
                  },
                  {
                    "id" : 108,
                    "_type" : "AMFile",
                    "src" : 20,
                    "trackNumber" : 0,
                    "attributes" : {
                      "ident" : "Narration_Hackathon-AR-Dec-2021 4",
                      "gain" : 1.0,
                      "mixToMono" : false,
                      "loudnessNormalization" : true
                    },
                      "channelNumber" : "0,1",
                    "effects" : [

                    ],
                    "start" : 1953,
                    "duration" : 196,
                    "mediaStart" : 0,
                    "mediaDuration" : 196,
                    "scalar" : 1,
                    "metadata" : {
                      "clipSpeedAttribute" : false
                    },
                    "animationTracks" : {

                    }
                  },
                  {
                    "id" : 109,
                    "_type" : "AMFile",
                    "src" : 21,
                    "trackNumber" : 0,
                    "attributes" : {
                      "ident" : "Narration_Hackathon-AR-Dec-2021 5",
                      "gain" : 1.0,
                      "mixToMono" : false,
                      "loudnessNormalization" : true
                    },
                      "channelNumber" : "0,1",
                    "effects" : [

                    ],
                    "start" : 2163,
                    "duration" : 481,
                    "mediaStart" : 0,
                    "mediaDuration" : 481,
                    "scalar" : 1,
                    "metadata" : {
                      "clipSpeedAttribute" : false
                    },
                    "animationTracks" : {

                    }
                  },
                  {
                    "id" : 110,
                    "_type" : "AMFile",
                    "src" : 23,
                    "trackNumber" : 0,
                    "attributes" : {
                      "ident" : "Narration_Hackathon-AR-Dec-2021 7",
                      "gain" : 1.0,
                      "mixToMono" : false,
                      "loudnessNormalization" : true
                    },
                      "channelNumber" : "0,1",
                    "parameters" : {
                      "volume" : 0.989010989010989
                    },
                    "effects" : [

                    ],
                    "start" : 2648,
                    "duration" : 391,
                    "mediaStart" : 0,
                    "mediaDuration" : 391,
                    "scalar" : 1,
                    "metadata" : {
                      "clipSpeedAttribute" : false
                    },
                    "animationTracks" : {

                    }
                  },
                  {
                    "id" : 111,
                    "_type" : "AMFile",
                    "src" : 25,
                    "trackNumber" : 0,
                    "attributes" : {
                      "ident" : "Narration_Hackathon-AR-Dec-2021 9",
                      "gain" : 1.0,
                      "mixToMono" : false,
                      "loudnessNormalization" : true
                    },
                      "channelNumber" : "0,1",
                    "effects" : [

                    ],
                    "start" : 3060,
                    "duration" : 556,
                    "mediaStart" : 0,
                    "mediaDuration" : 556,
                    "scalar" : 1,
                    "metadata" : {
                      "clipSpeedAttribute" : false
                    },
                    "animationTracks" : {

                    }
                  },
                  {
                    "id" : 112,
                    "_type" : "AMFile",
                    "src" : 26,
                    "trackNumber" : 0,
                    "attributes" : {
                      "ident" : "Narration_Hackathon-AR-Dec-2021 10",
                      "gain" : 1.0,
                      "mixToMono" : false,
                      "loudnessNormalization" : true
                    },
                      "channelNumber" : "0,1",
                    "effects" : [

                    ],
                    "start" : 3647,
                    "duration" : 556,
                    "mediaStart" : 0,
                    "mediaDuration" : 556,
                    "scalar" : 1,
                    "metadata" : {
                      "clipSpeedAttribute" : false
                    },
                    "animationTracks" : {

                    }
                  },
                  {
                    "id" : 113,
                    "_type" : "AMFile",
                    "src" : 27,
                    "trackNumber" : 0,
                    "attributes" : {
                      "ident" : "Narration_Hackathon-AR-Dec-2021 11",
                      "gain" : 1.0,
                      "mixToMono" : false,
                      "loudnessNormalization" : true
                    },
                      "channelNumber" : "0,1",
                    "effects" : [

                    ],
                    "start" : 4209,
                    "duration" : 496,
                    "mediaStart" : 0,
                    "mediaDuration" : 496,
                    "scalar" : 1,
                    "metadata" : {
                      "clipSpeedAttribute" : false
                    },
                    "animationTracks" : {

                    }
                  },
                  {
                    "id" : 114,
                    "_type" : "AMFile",
                    "src" : 28,
                    "trackNumber" : 0,
                    "attributes" : {
                      "ident" : "Narration_Hackathon-AR-Dec-2021 12",
                      "gain" : 1.0,
                      "mixToMono" : false,
                      "loudnessNormalization" : true
                    },
                      "channelNumber" : "0,1",
                    "effects" : [

                    ],
                    "start" : 4718,
                    "duration" : 466,
                    "mediaStart" : 0,
                    "mediaDuration" : 466,
                    "scalar" : 1,
                    "metadata" : {
                      "clipSpeedAttribute" : false
                    },
                    "animationTracks" : {

                    }
                  },
                  {
                    "id" : 115,
                    "_type" : "AMFile",
                    "src" : 30,
                    "trackNumber" : 0,
                    "attributes" : {
                      "ident" : "Narration_Hackathon-AR-Dec-2021 14",
                      "gain" : 1.0,
                      "mixToMono" : false,
                      "loudnessNormalization" : true
                    },
                      "channelNumber" : "0,1",
                    "effects" : [

                    ],
                    "start" : 5184,
                    "duration" : 494,
                    "mediaStart" : 0,
                    "mediaDuration" : 494,
                    "scalar" : 1,
                    "metadata" : {
                      "clipSpeedAttribute" : false
                    },
                    "animationTracks" : {

                    }
                  },
                  {
                    "id" : 116,
                    "_type" : "AMFile",
                    "src" : 31,
                    "trackNumber" : 0,
                    "attributes" : {
                      "ident" : "Narration_Hackathon-AR-Dec-2021 15",
                      "gain" : 1.0,
                      "mixToMono" : false,
                      "loudnessNormalization" : true
                    },
                      "channelNumber" : "0,1",
                    "effects" : [

                    ],
                    "start" : 5683,
                    "duration" : 405,
                    "mediaStart" : 0,
                    "mediaDuration" : 405,
                    "scalar" : 1,
                    "metadata" : {
                      "clipSpeedAttribute" : false
                    },
                    "animationTracks" : {

                    }
                  },
                  {
                    "id" : 117,
                    "_type" : "AMFile",
                    "src" : 33,
                    "trackNumber" : 0,
                    "attributes" : {
                      "ident" : "Narration_Hackathon-AR-Dec-2021 16",
                      "gain" : 1.0,
                      "mixToMono" : false,
                      "loudnessNormalization" : true
                    },
                      "channelNumber" : "0,1",
                    "effects" : [

                    ],
                    "start" : 6096,
                    "duration" : 933,
                    "mediaStart" : 0,
                    "mediaDuration" : 933,
                    "scalar" : 1,
                    "metadata" : {
                      "clipSpeedAttribute" : false
                    },
                    "animationTracks" : {

                    }
                  },
                  {
                    "id" : 118,
                    "_type" : "AMFile",
                    "src" : 36,
                    "trackNumber" : 0,
                    "attributes" : {
                      "ident" : "Narration_Hackathon-AR-Dec-2021 17",
                      "gain" : 1.0,
                      "mixToMono" : false,
                      "loudnessNormalization" : true
                    },
                      "channelNumber" : "0,1",
                    "effects" : [

                    ],
                    "start" : 7345,
                    "duration" : 418,
                    "mediaStart" : 0,
                    "mediaDuration" : 418,
                    "scalar" : 1,
                    "metadata" : {
                      "clipSpeedAttribute" : false
                    },
                    "animationTracks" : {

                    }
                  },
                  {
                    "id" : 119,
                    "_type" : "UnifiedMedia",
                    "video" : 
                        {
                          "id" : 120,
                          "_type" : "VMFile",
                          "src" : 14,
                          "trackNumber" : 1,
                          "attributes" : {
                            "ident" : "arHandShakeFish (online-video-cutter.com)"
                          },
                          "parameters" : {
                            "translation0" : {
                              "type" : "double",
                              "defaultValue" : -788.339622641509,
                              "interp" : "eioe"
                            },
                            "translation1" : {
                              "type" : "double",
                              "defaultValue" : -162.976939203355,
                              "interp" : "eioe"
                            },
                            "scale0" : {
                              "type" : "double",
                              "defaultValue" : 1.05963195900303,
                              "interp" : "eioe"
                            },
                            "scale1" : {
                              "type" : "double",
                              "defaultValue" : 1.05963195900303,
                              "interp" : "eioe"
                            },
                            "sourceCrop0" : {
                              "type" : "double",
                              "defaultValue" : 0.0,
                              "interp" : "eioe"
                            },
                            "sourceCrop1" : {
                              "type" : "double",
                              "defaultValue" : 0.0,
                              "interp" : "eioe"
                            },
                            "sourceCrop2" : {
                              "type" : "double",
                              "defaultValue" : 0.0,
                              "interp" : "eioe"
                            },
                            "sourceCrop3" : {
                              "type" : "double",
                              "defaultValue" : 0.0,
                              "interp" : "eioe"
                            },
                            "geometryCrop0" : {
                              "type" : "double",
                              "defaultValue" : 0.0,
                              "interp" : "eioe"
                            },
                            "geometryCrop1" : {
                              "type" : "double",
                              "defaultValue" : 0.0,
                              "interp" : "eioe"
                            },
                            "geometryCrop2" : {
                              "type" : "double",
                              "defaultValue" : 0.0,
                              "interp" : "eioe"
                            },
                            "geometryCrop3" : {
                              "type" : "double",
                              "defaultValue" : 0.0,
                              "interp" : "eioe"
                            }
                          },
                          "effects" : [

                          ],
                          "start" : 8890,
                          "duration" : 495,
                          "mediaStart" : 0,
                          "mediaDuration" : 295,
                          "scalar" : "99/59",
                          "animationTracks" : {

                          }
                        },
                    "audio" : 
                        {
                          "id" : 121,
                          "_type" : "AMFile",
                          "src" : 14,
                          "trackNumber" : 0,
                          "attributes" : {
                            "ident" : "",
                            "gain" : 1.0,
                            "mixToMono" : false,
                            "loudnessNormalization" : true
                          },
                            "channelNumber" : "0,1",
                          "effects" : [

                          ],
                          "start" : 8890,
                          "duration" : 495,
                          "mediaStart" : 0,
                          "mediaDuration" : 295,
                          "scalar" : "99/59",
                          "animationTracks" : {

                          }
                        }
,
                    "start" : 8890,
                    "duration" : 495,
                    "mediaStart" : 0,
                    "mediaDuration" : 295,
                    "scalar" : "99/59",
                    "metadata" : {
                      "clipSpeedAttribute" : true,
                      "default-height" : 720.0,
                      "default-scale0" : 1.0,
                      "default-scale1" : 1.0,
                      "default-translation0" : 0.0,
                      "default-translation1" : 0.0,
                      "default-width" : 324.0
                    }
                  }
                ],
                "transitions" : [
                  {
                    "name" : "BarWipe",
                    "duration" : 60,
                    "rightMedia" : 105,
                    "attributes" : {
                      "bypass" : false,
                      "reverse" : false,
                      "trivial" : false,
                      "useAudioPreRoll" : true,
                      "useVisualPreRoll" : true
                    }

                  },
                  {
                    "name" : "BarWipe",
                    "duration" : 60,
                    "rightMedia" : 119,
                    "attributes" : {
                      "bypass" : false,
                      "reverse" : false,
                      "trivial" : false,
                      "useAudioPreRoll" : true,
                      "useVisualPreRoll" : true
                    }

                  }
                ]
              },
              {
                "trackIndex" : 2,
                "medias" : [
                  {
                    "id" : 122,
                    "_type" : "Callout",
                    "def" : {
                      "kind" : "remix",
                      "shape" : "text",
                      "style" : "basic",
                      "enable-ligatures" : 1.0,
                      "height" : 250.0,
                      "line-spacing" : 0.0,
                      "width" : 1060.37735849057,
                      "word-wrap" : 1.0,
                      "horizontal-alignment" : "center",
                      "resize-behavior" : "resizeText",
                      "text" : "AR Handshake App",
                      "vertical-alignment" : "center",
                      "font" : {
                        "color-blue" : 1.0,
                        "color-green" : 1.0,
                        "color-red" : 1.0,
                        "size" : 96.0,
                        "tracking" : 0.0,
                        "name" : "Montserrat",
                        "weight" : "Regular"
                      },
                      "textAttributes" : {
                        "type" : "textAttributeList",
                        "keyframes" : [
                          {
                            "endTime" : 0,
                            "time" : 0,
                            "value" : [{"name":"kerning","rangeEnd":16,"rangeStart":0,"value":0,"valueType":"double"},{"name":"strikethrough","rangeEnd":16,"rangeStart":0,"value":0,"valueType":"int"},{"name":"underline","rangeEnd":16,"rangeStart":0,"value":0,"valueType":"int"},{"name":"fgColor","rangeEnd":16,"rangeStart":0,"value":"(255,255,255,255)","valueType":"color"},{"name":"fontSize","rangeEnd":16,"rangeStart":0,"value":96,"valueType":"double"},{"name":"fontItalic","rangeEnd":16,"rangeStart":0,"value":0,"valueType":"int"},{"name":"fontName","rangeEnd":16,"rangeStart":0,"value":"Montserrat","valueType":"string"},{"name":"fontWeight","rangeEnd":16,"rangeStart":0,"value":400,"valueType":"int"}],
                            "duration" : 0
                          }
                        ]
                      }
                    },
                    "attributes" : {
                      "ident" : "",
                      "autoRotateText" : true
                    },
                    "parameters" : {
                      "translation0" : -65.7264150943397,
                      "translation1" : 275.0,
                      "sourceCrop0" : 0.0,
                      "sourceCrop1" : 0.0,
                      "sourceCrop2" : 0.0,
                      "sourceCrop3" : 0.0,
                      "geometryCrop0" : 0.0,
                      "geometryCrop1" : 0.0,
                      "geometryCrop2" : 0.0,
                      "geometryCrop3" : 0.0
                    },
                    "effects" : [

                    ],
                    "start" : 0,
                    "duration" : 1016,
                    "mediaStart" : 0,
                    "mediaDuration" : 1016,
                    "scalar" : 1,
                    "metadata" : {
                      "clipSpeedAttribute" : false,
                      "default-HAlign" : "center",
                      "default-LineSpace" : 0.0,
                      "default-VAlign" : "center",
                      "default-height" : 250.0,
                      "default-text-attributes" : null,
                      "default-translation0" : 0.0,
                      "default-translation1" : 0.0,
                      "default-width" : 400.0
                    },
                    "animationTracks" : {

                    }
                  },
                  {
                    "id" : 123,
                    "_type" : "Callout",
                    "def" : {
                      "kind" : "remix",
                      "shape" : "text",
                      "style" : "basic",
                      "enable-ligatures" : 1.0,
                      "height" : 231.25,
                      "line-spacing" : 0.0,
                      "width" : 337.0,
                      "word-wrap" : 1.0,
                      "horizontal-alignment" : "center",
                      "resize-behavior" : "resizeText",
                      "text" : "Stablized",
                      "vertical-alignment" : "center",
                      "font" : {
                        "color-blue" : 1.0,
                        "color-green" : 1.0,
                        "color-red" : 1.0,
                        "size" : 64.0,
                        "tracking" : 0.0,
                        "name" : "Montserrat",
                        "weight" : "Regular"
                      },
                      "textAttributes" : {
                        "type" : "textAttributeList",
                        "keyframes" : [
                          {
                            "endTime" : 0,
                            "time" : 0,
                            "value" : [{"name":"fontSize","rangeEnd":9,"rangeStart":0,"value":64,"valueType":"double"},{"name":"kerning","rangeEnd":9,"rangeStart":0,"value":0,"valueType":"double"},{"name":"fontWeight","rangeEnd":9,"rangeStart":0,"value":400,"valueType":"int"},{"name":"strikethrough","rangeEnd":9,"rangeStart":0,"value":0,"valueType":"int"},{"name":"fontName","rangeEnd":9,"rangeStart":0,"value":"Montserrat","valueType":"string"},{"name":"fontItalic","rangeEnd":9,"rangeStart":0,"value":0,"valueType":"int"},{"name":"fgColor","rangeEnd":9,"rangeStart":0,"value":"(255,255,255,255)","valueType":"color"},{"name":"underline","rangeEnd":9,"rangeStart":0,"value":0,"valueType":"int"}],
                            "duration" : 0
                          }
                        ]
                      }
                    },
                    "attributes" : {
                      "ident" : "",
                      "autoRotateText" : true
                    },
                    "parameters" : {
                      "translation0" : -298.125,
                      "translation1" : 424.75,
                      "sourceCrop0" : 0.0,
                      "sourceCrop1" : 0.0,
                      "sourceCrop2" : 0.0,
                      "sourceCrop3" : 0.0,
                      "geometryCrop0" : 0.0,
                      "geometryCrop1" : 0.0,
                      "geometryCrop2" : 0.0,
                      "geometryCrop3" : 0.0
                    },
                    "effects" : [

                    ],
                    "start" : 1517,
                    "duration" : 423,
                    "mediaStart" : 0,
                    "mediaDuration" : 423,
                    "scalar" : 1,
                    "metadata" : {
                      "clipSpeedAttribute" : false,
                      "default-HAlign" : "center",
                      "default-LineSpace" : 0.0,
                      "default-VAlign" : "center",
                      "default-height" : 250.0,
                      "default-text-attributes" : null,
                      "default-translation0" : 0.0,
                      "default-translation1" : 0.0,
                      "default-width" : 400.0
                    },
                    "animationTracks" : {

                    }
                  },
                  {
                    "id" : 124,
                    "_type" : "AMFile",
                    "src" : 35,
                    "trackNumber" : 1,
                    "attributes" : {
                      "ident" : "yt1s.com -  Taylor Swift   Shake it off Lyrics_v720P",
                      "gain" : 1.0,
                      "mixToMono" : false,
                      "loudnessNormalization" : true
                    },
                      "channelNumber" : "0,1",
                    "effects" : [

                    ],
                    "start" : 6933,
                    "duration" : 410,
                    "mediaStart" : 2890,
                    "mediaDuration" : 410,
                    "scalar" : 1,
                    "metadata" : {
                      "clipSpeedAttribute" : false
                    },
                    "animationTracks" : {

                    }
                  },
                  {
                    "id" : 125,
                    "_type" : "UnifiedMedia",
                    "video" : 
                        {
                          "id" : 126,
                          "_type" : "VMFile",
                          "src" : 15,
                          "trackNumber" : 1,
                          "attributes" : {
                            "ident" : "arHandShakeWithTongs"
                          },
                          "parameters" : {
                            "translation0" : {
                              "type" : "double",
                              "defaultValue" : 770.340507075473,
                              "interp" : "eioe"
                            },
                            "translation1" : {
                              "type" : "double",
                              "defaultValue" : -142.534722222223,
                              "interp" : "eioe"
                            },
                            "scale0" : {
                              "type" : "double",
                              "defaultValue" : 1.11641589506173,
                              "interp" : "eioe"
                            },
                            "scale1" : {
                              "type" : "double",
                              "defaultValue" : 1.11641589506173,
                              "interp" : "eioe"
                            },
                            "sourceCrop0" : {
                              "type" : "double",
                              "defaultValue" : 0.0,
                              "interp" : "eioe"
                            },
                            "sourceCrop1" : {
                              "type" : "double",
                              "defaultValue" : 0.0,
                              "interp" : "eioe"
                            },
                            "sourceCrop2" : {
                              "type" : "double",
                              "defaultValue" : 0.0,
                              "interp" : "eioe"
                            },
                            "sourceCrop3" : {
                              "type" : "double",
                              "defaultValue" : 0.0,
                              "interp" : "eioe"
                            },
                            "geometryCrop0" : {
                              "type" : "double",
                              "defaultValue" : 0.0,
                              "interp" : "eioe"
                            },
                            "geometryCrop1" : {
                              "type" : "double",
                              "defaultValue" : 0.0,
                              "interp" : "eioe"
                            },
                            "geometryCrop2" : {
                              "type" : "double",
                              "defaultValue" : 0.0,
                              "interp" : "eioe"
                            },
                            "geometryCrop3" : {
                              "type" : "double",
                              "defaultValue" : 0.0,
                              "interp" : "eioe"
                            }
                          },
                          "effects" : [

                          ],
                          "start" : 8890,
                          "duration" : 479,
                          "mediaStart" : 0,
                          "mediaDuration" : 205,
                          "scalar" : "479/205",
                          "animationTracks" : {

                          }
                        },
                    "audio" : 
                        {
                          "id" : 127,
                          "_type" : "AMFile",
                          "src" : 15,
                          "trackNumber" : 0,
                          "attributes" : {
                            "ident" : "",
                            "gain" : 1.0,
                            "mixToMono" : false,
                            "loudnessNormalization" : true
                          },
                            "channelNumber" : "0,1",
                          "effects" : [

                          ],
                          "start" : 8890,
                          "duration" : 479,
                          "mediaStart" : 0,
                          "mediaDuration" : 205,
                          "scalar" : "479/205",
                          "animationTracks" : {

                          }
                        }
,
                    "start" : 8890,
                    "duration" : 479,
                    "mediaStart" : 0,
                    "mediaDuration" : 205,
                    "scalar" : "479/205",
                    "metadata" : {
                      "clipSpeedAttribute" : true,
                      "default-height" : 720.0,
                      "default-scale0" : 1.0,
                      "default-scale1" : 1.0,
                      "default-translation0" : 0.0,
                      "default-translation1" : 0.0,
                      "default-width" : 324.0
                    }
                  }
                ],
                "transitions" : [
                  {
                    "name" : "BarWipe",
                    "duration" : 60,
                    "rightMedia" : 123,
                    "attributes" : {
                      "bypass" : false,
                      "reverse" : false,
                      "trivial" : false,
                      "useAudioPreRoll" : true,
                      "useVisualPreRoll" : true
                    }

                  },
                  {
                    "name" : "BarWipe",
                    "duration" : 60,
                    "rightMedia" : 125,
                    "attributes" : {
                      "bypass" : false,
                      "reverse" : false,
                      "trivial" : false,
                      "useAudioPreRoll" : true,
                      "useVisualPreRoll" : true
                    }

                  }
                ]
              },
              {
                "trackIndex" : 3,
                "medias" : [
                  {
                    "id" : 128,
                    "_type" : "Callout",
                    "def" : {
                      "kind" : "remix",
                      "shape" : "text",
                      "style" : "basic",
                      "enable-ligatures" : 1.0,
                      "height" : 99.0566031258061,
                      "line-spacing" : 0.0,
                      "width" : 530.188664274395,
                      "word-wrap" : 1.0,
                      "horizontal-alignment" : "center",
                      "resize-behavior" : "resizeText",
                      "text" : "Davian Flores",
                      "vertical-alignment" : "center",
                      "font" : {
                        "color-blue" : 1.0,
                        "color-green" : 1.0,
                        "color-red" : 1.0,
                        "size" : 96.0,
                        "tracking" : 0.0,
                        "name" : "Montserrat",
                        "weight" : "Regular"
                      },
                      "textAttributes" : {
                        "type" : "textAttributeList",
                        "keyframes" : [
                          {
                            "endTime" : 0,
                            "time" : 0,
                            "value" : [{"name":"underline","rangeEnd":13,"rangeStart":0,"value":0,"valueType":"int"},{"name":"fontSize","rangeEnd":13,"rangeStart":0,"value":96,"valueType":"double"},{"name":"fontItalic","rangeEnd":13,"rangeStart":0,"value":0,"valueType":"int"},{"name":"fgColor","rangeEnd":13,"rangeStart":0,"value":"(255,255,255,255)","valueType":"color"},{"name":"fontName","rangeEnd":13,"rangeStart":0,"value":"Montserrat","valueType":"string"},{"name":"strikethrough","rangeEnd":13,"rangeStart":0,"value":0,"valueType":"int"},{"name":"kerning","rangeEnd":13,"rangeStart":0,"value":0,"valueType":"double"},{"name":"fontWeight","rangeEnd":13,"rangeStart":0,"value":400,"valueType":"int"}],
                            "duration" : 0
                          }
                        ]
                      }
                    },
                    "attributes" : {
                      "ident" : "",
                      "autoRotateText" : true
                    },
                    "parameters" : {
                      "translation0" : 428.707554655255,
                      "translation1" : -262.73584581771,
                      "sourceCrop0" : 0.0,
                      "sourceCrop1" : 0.0,
                      "sourceCrop2" : 0.0,
                      "sourceCrop3" : 0.0,
                      "geometryCrop0" : 0.0,
                      "geometryCrop1" : 0.0,
                      "geometryCrop2" : 0.0,
                      "geometryCrop3" : 0.0
                    },
                    "effects" : [

                    ],
                    "start" : 0,
                    "duration" : 1016,
                    "mediaStart" : 0,
                    "mediaDuration" : 1016,
                    "scalar" : 1,
                    "metadata" : {
                      "clipSpeedAttribute" : false,
                      "default-HAlign" : "center",
                      "default-LineSpace" : 0.0,
                      "default-VAlign" : "center",
                      "default-height" : 250.0,
                      "default-text-attributes" : null,
                      "default-translation0" : 0.0,
                      "default-translation1" : 0.0,
                      "default-width" : 400.0
                    },
                    "animationTracks" : {

                    }
                  },
                  {
                    "id" : 129,
                    "_type" : "Callout",
                    "def" : {
                      "kind" : "remix",
                      "shape" : "text",
                      "style" : "basic",
                      "enable-ligatures" : {
                        "type" : "double",
                        "defaultValue" : 1.0,
                        "interp" : "linr"
                      },
                      "height" : {
                        "type" : "double",
                        "defaultValue" : 231.25,
                        "interp" : "linr"
                      },
                      "line-spacing" : {
                        "type" : "double",
                        "defaultValue" : 0.0,
                        "interp" : "linr"
                      },
                      "width" : {
                        "type" : "double",
                        "defaultValue" : 337.0,
                        "interp" : "linr"
                      },
                      "word-wrap" : {
                        "type" : "double",
                        "defaultValue" : 1.0,
                        "interp" : "linr"
                      },
                      "horizontal-alignment" : "center",
                      "resize-behavior" : "resizeText",
                      "text" : "Original",
                      "vertical-alignment" : "center",
                      "font" : {
                        "color-blue" : {
                          "type" : "double",
                          "defaultValue" : 1.0,
                          "interp" : "linr"
                        },
                        "color-green" : {
                          "type" : "double",
                          "defaultValue" : 1.0,
                          "interp" : "linr"
                        },
                        "color-red" : {
                          "type" : "double",
                          "defaultValue" : 1.0,
                          "interp" : "linr"
                        },
                        "size" : {
                          "type" : "double",
                          "defaultValue" : 64.0,
                          "interp" : "linr"
                        },
                        "tracking" : {
                          "type" : "double",
                          "defaultValue" : 0.0,
                          "interp" : "linr"
                        },
                        "name" : "Montserrat",
                        "weight" : "Regular"
                      },
                      "textAttributes" : {
                        "type" : "textAttributeList",
                        "keyframes" : [
                          {
                            "endTime" : 0,
                            "time" : 0,
                            "value" : [{"name":"fontWeight","rangeEnd":8,"rangeStart":0,"value":400,"valueType":"int"},{"name":"underline","rangeEnd":8,"rangeStart":0,"value":0,"valueType":"int"},{"name":"strikethrough","rangeEnd":8,"rangeStart":0,"value":0,"valueType":"int"},{"name":"fgColor","rangeEnd":8,"rangeStart":0,"value":"(255,255,255,255)","valueType":"color"},{"name":"kerning","rangeEnd":8,"rangeStart":0,"value":0,"valueType":"double"},{"name":"fontSize","rangeEnd":8,"rangeStart":0,"value":64,"valueType":"double"},{"name":"fontName","rangeEnd":8,"rangeStart":0,"value":"Montserrat","valueType":"string"},{"name":"fontItalic","rangeEnd":8,"rangeStart":0,"value":0,"valueType":"int"}],
                            "duration" : 0
                          }
                        ]
                      }
                    },
                    "attributes" : {
                      "ident" : "",
                      "autoRotateText" : true
                    },
                    "parameters" : {
                      "translation0" : {
                        "type" : "double",
                        "defaultValue" : 298.125000000001,
                        "interp" : "eioe"
                      },
                      "translation1" : {
                        "type" : "double",
                        "defaultValue" : 424.75,
                        "interp" : "eioe"
                      },
                      "sourceCrop0" : {
                        "type" : "double",
                        "defaultValue" : 0.0,
                        "interp" : "eioe"
                      },
                      "sourceCrop1" : {
                        "type" : "double",
                        "defaultValue" : 0.0,
                        "interp" : "eioe"
                      },
                      "sourceCrop2" : {
                        "type" : "double",
                        "defaultValue" : 0.0,
                        "interp" : "eioe"
                      },
                      "sourceCrop3" : {
                        "type" : "double",
                        "defaultValue" : 0.0,
                        "interp" : "eioe"
                      },
                      "geometryCrop0" : {
                        "type" : "double",
                        "defaultValue" : 0.0,
                        "interp" : "eioe"
                      },
                      "geometryCrop1" : {
                        "type" : "double",
                        "defaultValue" : 0.0,
                        "interp" : "eioe"
                      },
                      "geometryCrop2" : {
                        "type" : "double",
                        "defaultValue" : 0.0,
                        "interp" : "eioe"
                      },
                      "geometryCrop3" : {
                        "type" : "double",
                        "defaultValue" : 0.0,
                        "interp" : "eioe"
                      }
                    },
                    "effects" : [

                    ],
                    "start" : 1517,
                    "duration" : 423,
                    "mediaStart" : 0,
                    "mediaDuration" : 423,
                    "scalar" : 1,
                    "metadata" : {
                      "clipSpeedAttribute" : false,
                      "default-HAlign" : "center",
                      "default-LineSpace" : 0.0,
                      "default-VAlign" : "center",
                      "default-height" : 250.0,
                      "default-text-attributes" : null,
                      "default-translation0" : 0.0,
                      "default-translation1" : 0.0,
                      "default-width" : 400.0
                    },
                    "animationTracks" : {

                    }
                  },
                  {
                    "id" : 130,
                    "_type" : "UnifiedMedia",
                    "video" : 
                        {
                          "id" : 131,
                          "_type" : "VMFile",
                          "src" : 16,
                          "trackNumber" : 1,
                          "attributes" : {
                            "ident" : "arHandShakeNormal (online-video-cutter.com)"
                          },
                          "parameters" : {
                            "translation0" : {
                              "type" : "double",
                              "defaultValue" : -2.00678066037719,
                              "interp" : "eioe"
                            },
                            "translation1" : {
                              "type" : "double",
                              "defaultValue" : -140.3125,
                              "interp" : "eioe"
                            },
                            "scale0" : {
                              "type" : "double",
                              "defaultValue" : 1.11024305555556,
                              "interp" : "eioe"
                            },
                            "scale1" : {
                              "type" : "double",
                              "defaultValue" : 1.11024305555556,
                              "interp" : "eioe"
                            },
                            "sourceCrop0" : {
                              "type" : "double",
                              "defaultValue" : 0.0,
                              "interp" : "eioe"
                            },
                            "sourceCrop1" : {
                              "type" : "double",
                              "defaultValue" : 0.0,
                              "interp" : "eioe"
                            },
                            "sourceCrop2" : {
                              "type" : "double",
                              "defaultValue" : 0.0,
                              "interp" : "eioe"
                            },
                            "sourceCrop3" : {
                              "type" : "double",
                              "defaultValue" : 0.0,
                              "interp" : "eioe"
                            },
                            "geometryCrop0" : {
                              "type" : "double",
                              "defaultValue" : 0.0,
                              "interp" : "eioe"
                            },
                            "geometryCrop1" : {
                              "type" : "double",
                              "defaultValue" : 0.0,
                              "interp" : "eioe"
                            },
                            "geometryCrop2" : {
                              "type" : "double",
                              "defaultValue" : 0.0,
                              "interp" : "eioe"
                            },
                            "geometryCrop3" : {
                              "type" : "double",
                              "defaultValue" : 0.0,
                              "interp" : "eioe"
                            }
                          },
                          "effects" : [

                          ],
                          "start" : 8890,
                          "duration" : 479,
                          "mediaStart" : 0,
                          "mediaDuration" : 340,
                          "scalar" : "479/340",
                          "animationTracks" : {

                          }
                        },
                    "audio" : 
                        {
                          "id" : 132,
                          "_type" : "AMFile",
                          "src" : 16,
                          "trackNumber" : 0,
                          "attributes" : {
                            "ident" : "",
                            "gain" : 1.0,
                            "mixToMono" : false,
                            "loudnessNormalization" : true
                          },
                            "channelNumber" : "0,1",
                          "effects" : [

                          ],
                          "start" : 8890,
                          "duration" : 479,
                          "mediaStart" : 0,
                          "mediaDuration" : 340,
                          "scalar" : "479/340",
                          "animationTracks" : {

                          }
                        }
,
                    "start" : 8890,
                    "duration" : 479,
                    "mediaStart" : 0,
                    "mediaDuration" : 340,
                    "scalar" : "479/340",
                    "metadata" : {
                      "clipSpeedAttribute" : true,
                      "default-height" : 720.0,
                      "default-scale0" : 1.0,
                      "default-scale1" : 1.0,
                      "default-translation0" : 0.0,
                      "default-translation1" : 0.0,
                      "default-width" : 324.0
                    }
                  }
                ],
                "transitions" : [
                  {
                    "name" : "BarWipe",
                    "duration" : 60,
                    "rightMedia" : 129,
                    "attributes" : {
                      "bypass" : false,
                      "reverse" : false,
                      "trivial" : false,
                      "useAudioPreRoll" : true,
                      "useVisualPreRoll" : true
                    }

                  },
                  {
                    "name" : "BarWipe",
                    "duration" : 60,
                    "rightMedia" : 130,
                    "attributes" : {
                      "bypass" : false,
                      "reverse" : false,
                      "trivial" : false,
                      "useAudioPreRoll" : true,
                      "useVisualPreRoll" : true
                    }

                  }
                ]
              },
              {
                "trackIndex" : 4,
                "medias" : [
                  {
                    "id" : 133,
                    "_type" : "IMFile",
                    "src" : 39,
                    "trackNumber" : 0,
                    "trimStartSum" : 0,
                    "attributes" : {
                      "ident" : "handshake_mark_light"
                    },
                    "parameters" : {
                      "translation0" : {
                        "type" : "double",
                        "defaultValue" : -66.0377358490564,
                        "interp" : "eioe"
                      },
                      "translation1" : {
                        "type" : "double",
                        "defaultValue" : -2.8421709430404e-14,
                        "interp" : "eioe"
                      },
                      "sourceCrop0" : {
                        "type" : "double",
                        "defaultValue" : 0.0,
                        "interp" : "eioe"
                      },
                      "sourceCrop1" : {
                        "type" : "double",
                        "defaultValue" : 0.0,
                        "interp" : "eioe"
                      },
                      "sourceCrop2" : {
                        "type" : "double",
                        "defaultValue" : 0.0,
                        "interp" : "eioe"
                      },
                      "sourceCrop3" : {
                        "type" : "double",
                        "defaultValue" : 0.0,
                        "interp" : "eioe"
                      },
                      "geometryCrop0" : {
                        "type" : "double",
                        "defaultValue" : 0.0,
                        "interp" : "eioe"
                      },
                      "geometryCrop1" : {
                        "type" : "double",
                        "defaultValue" : 0.0,
                        "interp" : "eioe"
                      },
                      "geometryCrop2" : {
                        "type" : "double",
                        "defaultValue" : 0.0,
                        "interp" : "eioe"
                      },
                      "geometryCrop3" : {
                        "type" : "double",
                        "defaultValue" : 0.0,
                        "interp" : "eioe"
                      }
                    },
                    "effects" : [

                    ],
                    "start" : 0,
                    "duration" : 300,
                    "mediaStart" : 0,
                    "mediaDuration" : 1,
                    "scalar" : 1,
                    "metadata" : {
                      "clipSpeedAttribute" : false,
                      "default-height" : 300.0,
                      "default-translation0" : 0.0,
                      "default-translation1" : 0.0,
                      "default-width" : 300.0
                    },
                    "animationTracks" : {

                    }
                  },
                  {
                    "id" : 134,
                    "_type" : "AMFile",
                    "src" : 19,
                    "trackNumber" : 0,
                    "attributes" : {
                      "ident" : "Narration_Hackathon-AR-Dec-2021 3",
                      "gain" : 1.0,
                      "mixToMono" : false,
                      "loudnessNormalization" : true
                    },
                      "channelNumber" : "0,1",
                    "effects" : [

                    ],
                    "start" : 1518,
                    "duration" : 364,
                    "mediaStart" : 0,
                    "mediaDuration" : 364,
                    "scalar" : 1,
                    "metadata" : {
                      "clipSpeedAttribute" : false
                    },
                    "animationTracks" : {

                    }
                  },
                  {
                    "id" : 135,
                    "_type" : "AMFile",
                    "src" : 13,
                    "trackNumber" : 1,
                    "attributes" : {
                      "ident" : "Resident Alien _ Intro Theme Song _ Opening Credits",
                      "gain" : 1.0,
                      "mixToMono" : false,
                      "loudnessNormalization" : true
                    },
                      "channelNumber" : "0,1",
                    "effects" : [

                    ],
                    "start" : 7763,
                    "duration" : 1692,
                    "mediaStart" : 0,
                    "mediaDuration" : 1692,
                    "scalar" : 1,
                    "metadata" : {
                      "clipSpeedAttribute" : false
                    },
                    "animationTracks" : {

                    }
                  }
                ]
              },
              {
                "trackIndex" : 5,
                "medias" : [
                  {
                    "id" : 136,
                    "_type" : "Callout",
                    "def" : {
                      "kind" : "remix",
                      "shape" : "text",
                      "style" : "basic",
                      "enable-ligatures" : 1.0,
                      "height" : 250.0,
                      "line-spacing" : 0.0,
                      "width" : 1494.33962264151,
                      "word-wrap" : 1.0,
                      "horizontal-alignment" : "center",
                      "resize-behavior" : "resizeText",
                      "text" : "Without handshaking practice",
                      "vertical-alignment" : "center",
                      "font" : {
                        "color-blue" : 1.0,
                        "color-green" : 1.0,
                        "color-red" : 1.0,
                        "size" : 96.0,
                        "tracking" : 0.0,
                        "name" : "Montserrat",
                        "weight" : "Regular"
                      },
                      "textAttributes" : {
                        "type" : "textAttributeList",
                        "keyframes" : [
                          {
                            "endTime" : 0,
                            "time" : 0,
                            "value" : [{"name":"fgColor","rangeEnd":28,"rangeStart":0,"value":"(255,255,255,255)","valueType":"color"},{"name":"fontWeight","rangeEnd":28,"rangeStart":0,"value":400,"valueType":"int"},{"name":"strikethrough","rangeEnd":28,"rangeStart":0,"value":0,"valueType":"int"},{"name":"fontSize","rangeEnd":28,"rangeStart":0,"value":96,"valueType":"double"},{"name":"kerning","rangeEnd":28,"rangeStart":0,"value":0,"valueType":"double"},{"name":"fontName","rangeEnd":28,"rangeStart":0,"value":"Montserrat","valueType":"string"},{"name":"fontItalic","rangeEnd":28,"rangeStart":0,"value":0,"valueType":"int"},{"name":"underline","rangeEnd":28,"rangeStart":0,"value":0,"valueType":"int"}],
                            "duration" : 0
                          }
                        ]
                      }
                    },
                    "attributes" : {
                      "ident" : "",
                      "autoRotateText" : true
                    },
                    "parameters" : {
                      "translation0" : 0.330188679245303,
                      "translation1" : 415.0,
                      "sourceCrop0" : 0.0,
                      "sourceCrop1" : 0.0,
                      "sourceCrop2" : 0.0,
                      "sourceCrop3" : 0.0,
                      "geometryCrop0" : 0.0,
                      "geometryCrop1" : 0.0,
                      "geometryCrop2" : 0.0,
                      "geometryCrop3" : 0.0
                    },
                    "effects" : [

                    ],
                    "start" : 7768,
                    "duration" : 300,
                    "mediaStart" : 0,
                    "mediaDuration" : 300,
                    "scalar" : 1,
                    "metadata" : {
                      "clipSpeedAttribute" : false,
                      "default-HAlign" : "center",
                      "default-LineSpace" : 0.0,
                      "default-VAlign" : "center",
                      "default-height" : 250.0,
                      "default-text-attributes" : null,
                      "default-translation0" : 0.0,
                      "default-translation1" : 0.0,
                      "default-width" : 400.0
                    },
                    "animationTracks" : {

                    }
                  },
                  {
                    "id" : 137,
                    "_type" : "Callout",
                    "def" : {
                      "kind" : "remix",
                      "shape" : "text",
                      "style" : "basic",
                      "enable-ligatures" : 1.0,
                      "height" : 250.0,
                      "line-spacing" : 0.0,
                      "width" : 1258.49056603774,
                      "word-wrap" : 1.0,
                      "horizontal-alignment" : "center",
                      "resize-behavior" : "resizeText",
                      "text" : "Even Aliens can Learn",
                      "vertical-alignment" : "center",
                      "font" : {
                        "color-blue" : 1.0,
                        "color-green" : 1.0,
                        "color-red" : 1.0,
                        "size" : 96.0,
                        "tracking" : 0.0,
                        "name" : "Montserrat",
                        "weight" : "Regular"
                      },
                      "textAttributes" : {
                        "type" : "textAttributeList",
                        "keyframes" : [
                          {
                            "endTime" : 0,
                            "time" : 0,
                            "value" : [{"name":"underline","rangeEnd":21,"rangeStart":0,"value":0,"valueType":"int"},{"name":"fontItalic","rangeEnd":21,"rangeStart":0,"value":0,"valueType":"int"},{"name":"fontSize","rangeEnd":21,"rangeStart":0,"value":96,"valueType":"double"},{"name":"fontName","rangeEnd":21,"rangeStart":0,"value":"Montserrat","valueType":"string"},{"name":"strikethrough","rangeEnd":21,"rangeStart":0,"value":0,"valueType":"int"},{"name":"kerning","rangeEnd":21,"rangeStart":0,"value":0,"valueType":"double"},{"name":"fgColor","rangeEnd":21,"rangeStart":0,"value":"(255,255,255,255)","valueType":"color"},{"name":"fontWeight","rangeEnd":21,"rangeStart":0,"value":400,"valueType":"int"}],
                            "duration" : 0
                          }
                        ]
                      }
                    },
                    "attributes" : {
                      "ident" : "",
                      "autoRotateText" : true
                    },
                    "parameters" : {
                      "translation0" : -62.9528301886792,
                      "translation1" : 415.0,
                      "sourceCrop0" : 0.0,
                      "sourceCrop1" : 0.0,
                      "sourceCrop2" : 0.0,
                      "sourceCrop3" : 0.0,
                      "geometryCrop0" : 0.0,
                      "geometryCrop1" : 0.0,
                      "geometryCrop2" : 0.0,
                      "geometryCrop3" : 0.0
                    },
                    "effects" : [

                    ],
                    "start" : 8414,
                    "duration" : 300,
                    "mediaStart" : 0,
                    "mediaDuration" : 300,
                    "scalar" : 1,
                    "metadata" : {
                      "clipSpeedAttribute" : false,
                      "default-HAlign" : "center",
                      "default-LineSpace" : 0.0,
                      "default-VAlign" : "center",
                      "default-height" : 250.0,
                      "default-text-attributes" : null,
                      "default-translation0" : 0.0,
                      "default-translation1" : 0.0,
                      "default-width" : 400.0
                    },
                    "animationTracks" : {

                    }
                  }
                ]
              },
              {
                "trackIndex" : 6,
                "medias" : [
                ]
              },
              {
                "trackIndex" : 7,
                "medias" : [
                ]
              }            ]
          }
        }
      ]
    },
    "trackAttributes" : [
      {
        "ident" : "",
        "audioMuted" : false,
        "videoHidden" : false,
        "magnetic" : false,
        "matte" : 0,
        "solo" : false,
        "metadata" : {
          "IsLocked" : "False",
          "WinTrackHeight" : "56"
        }
      },
      {
        "ident" : "",
        "audioMuted" : false,
        "videoHidden" : false,
        "magnetic" : false,
        "matte" : 0,
        "solo" : false,
        "metadata" : {
          "IsLocked" : "False",
          "WinTrackHeight" : "56"
        }
      },
      {
        "ident" : "",
        "audioMuted" : false,
        "videoHidden" : false,
        "magnetic" : false,
        "matte" : 0,
        "solo" : false,
        "metadata" : {
          "IsLocked" : "False",
          "WinTrackHeight" : "56"
        }
      },
      {
        "ident" : "",
        "audioMuted" : false,
        "videoHidden" : false,
        "magnetic" : false,
        "matte" : 0,
        "solo" : false,
        "metadata" : {
          "IsLocked" : "False",
          "WinTrackHeight" : "56"
        }
      },
      {
        "ident" : "",
        "audioMuted" : false,
        "videoHidden" : false,
        "magnetic" : false,
        "matte" : 0,
        "solo" : false,
        "metadata" : {
          "IsLocked" : "False",
          "WinTrackHeight" : "56"
        }
      },
      {
        "ident" : "",
        "audioMuted" : false,
        "videoHidden" : false,
        "magnetic" : false,
        "matte" : 0,
        "solo" : false,
        "metadata" : {
          "IsLocked" : "False",
          "WinTrackHeight" : "56"
        }
      },
      {
        "ident" : "",
        "audioMuted" : false,
        "videoHidden" : false,
        "magnetic" : false,
        "matte" : 0,
        "solo" : false,
        "metadata" : {
          "IsLocked" : "False",
          "WinTrackHeight" : "56"
        }
      },
      {
        "ident" : "",
        "audioMuted" : false,
        "videoHidden" : false,
        "magnetic" : false,
        "matte" : 0,
        "solo" : false,
        "metadata" : {
          "IsLocked" : "False",
          "WinTrackHeight" : "56"
        }
      }
    ],
    "captionAttributes" : {
      "enabled" : true,
      "fontName" : "Arial",
      "fontSize" : 64,
      "backgroundColor" : [ 0, 0, 0, 191],
      "foregroundColor" : [ 255, 255, 255, 255],
      "lang" : "en",
      "alignment" : 0,
      "defaultFontSize" : true,
      "opacity" : 0.5,
      "backgroundEnabled" : true,
      "backgroundOnlyAroundText" : true
    },
    "gain" : 1.0,
    "legacyAttenuateAudioMix" : false,
    "backgroundColor" : [ 0, 0, 0, 255]
  },
  "metadata" : {
    "AutoSaveFile" : "",
    "CanvasZoom" : 53,
    "Date" : "2021-12-02 09:24:48 AM",
    "Fit" : 1,
    "IsAutoSave" : false,
    "IsStandalone" : true,
    "Language" : "ENU",
    "ProfileName" : "",
    "ProjectDimensionsChanged" : "1",
    "Title" : "Hackathon-AR-Dec-2021",
    "audioNarrationNotes" : "",
    "calloutStyle" : "Basic"
  }
}
